<?xml version="1.0" standalone="yes"?>

<svg version="1.1" viewBox="0.0 0.0 960.0 720.0" fill="none" stroke="none" stroke-linecap="square" stroke-miterlimit="10" clip-path="url(#p.0)" xmlns="http://www.w3.org/2000/svg" xmlns:xlink="http://www.w3.org/1999/xlink"><clipPath id="p.0"><path d="m0 0l960.0 0l0 720.0l-960.0 0l0 -720.0z" clip-rule="nonzero"></path></clipPath><path fill="#cfe2f3" stroke="#000000" stroke-width="2.0" stroke-linejoin="round" stroke-linecap="butt" d="m31.91076 347.5853l890.2677 0l0 290.83463l-890.2677 0z" fill-rule="nonzero"></path><path fill="#a4c2f4" stroke="#000000" stroke-width="1.0" stroke-linejoin="round" stroke-linecap="butt" d="m421.1706 22.166666l111.74805 0l0 92.220474l-111.74805 0z" fill-rule="nonzero"></path><path fill="#000000" d="m453.47287 58.94878l1.796875 0.453125q-0.5625 2.21875 -2.03125 3.3828125q-1.46875 1.1640625 -3.59375 1.1640625q-2.203125 0 -3.578125 -0.8984375q-1.375 -0.8984375 -2.09375 -2.59375q-0.71875 -1.6953125 -0.71875 -3.6484375q0 -2.125 0.8046875 -3.703125q0.8046875 -1.578125 2.3046875 -2.3984375q1.5 -0.8203125 3.296875 -0.8203125q2.046875 0 3.4375 1.0390625q1.390625 1.0390625 1.9375 2.9140625l-1.765625 0.421875q-0.46875 -1.484375 -1.375 -2.1640625q-0.90625 -0.6796875 -2.265625 -0.6796875q-1.5625 0 -2.6171875 0.75q-1.0546875 0.75 -1.484375 2.0234375q-0.4296875 1.2734375 -0.4296875 2.6171875q0 1.734375 0.5078125 3.0234375q0.5078125 1.2890625 1.578125 1.9296875q1.0703125 0.640625 2.3046875 0.640625q1.515625 0 2.5625 -0.8671875q1.046875 -0.8671875 1.421875 -2.5859375zm9.988586 3.546875q-0.9375 0.796875 -1.796875 1.1171875q-0.859375 0.3203125 -1.84375 0.3203125q-1.609375 0 -2.484375 -0.7890625q-0.875 -0.7890625 -0.875 -2.0234375q0 -0.734375 0.328125 -1.328125q0.328125 -0.59375 0.859375 -0.953125q0.53125 -0.359375 1.203125 -0.546875q0.5 -0.140625 1.484375 -0.25q2.03125 -0.25 2.984375 -0.578125q0 -0.34375 0 -0.4375q0 -1.015625 -0.46875 -1.4375q-0.640625 -0.5625 -1.90625 -0.5625q-1.171875 0 -1.734375 0.40625q-0.5625 0.40625 -0.828125 1.46875l-1.640625 -0.234375q0.234375 -1.046875 0.7421875 -1.6875q0.5078125 -0.640625 1.46875 -0.9921875q0.9609375 -0.3515625 2.2421875 -0.3515625q1.265625 0 2.046875 0.296875q0.78125 0.296875 1.15625 0.75q0.375 0.453125 0.515625 1.140625q0.09375 0.421875 0.09375 1.53125l0 2.234375q0 2.328125 0.1015625 2.9453125q0.1015625 0.6171875 0.4296875 1.1796875l-1.75 0q-0.265625 -0.515625 -0.328125 -1.21875zm-0.140625 -3.71875q-0.90625 0.359375 -2.734375 0.625q-1.03125 0.140625 -1.453125 0.328125q-0.421875 0.1875 -0.65625 0.546875q-0.234375 0.359375 -0.234375 0.796875q0 0.671875 0.5078125 1.1171875q0.5078125 0.4453125 1.4765625 0.4453125q0.96875 0 1.71875 -0.4296875q0.75 -0.4296875 1.109375 -1.1484375q0.265625 -0.578125 0.265625 -1.671875l0 -0.609375zm4.078827 8.718746l0 -13.640621l1.53125 0l0 1.28125q0.53125 -0.75 1.2109375 -1.125q0.6796875 -0.375 1.6328125 -0.375q1.265625 0 2.234375 0.6484375q0.96875 0.6484375 1.4609375 1.8359375q0.4921875 1.1875 0.4921875 2.59375q0 1.515625 -0.546875 2.7265625q-0.546875 1.2109375 -1.578125 1.8515625q-1.03125 0.640625 -2.171875 0.640625q-0.84375 0 -1.5078125 -0.3515625q-0.6640625 -0.3515625 -1.0859375 -0.8828125l0 4.796871l-1.671875 0zm1.515625 -8.656246q0 1.90625 0.7734375 2.8125q0.7734375 0.90625 1.8671875 0.90625q1.109375 0 1.8984375 -0.9375q0.7890625 -0.9375 0.7890625 -2.921875q0 -1.875 -0.7734375 -2.8125q-0.7734375 -0.9375 -1.8515625 -0.9375q-1.0625 0 -1.8828125 1.0q-0.8203125 1.0 -0.8203125 2.890625zm12.516357 3.375l0.234375 1.484375q-0.703125 0.140625 -1.265625 0.140625q-0.90625 0 -1.40625 -0.2890625q-0.5 -0.2890625 -0.703125 -0.75q-0.203125 -0.4609375 -0.203125 -1.9765625l0 -5.65625l-1.234375 0l0 -1.3125l1.234375 0l0 -2.4375l1.65625 -1.0l0 3.4375l1.6875 0l0 1.3125l-1.6875 0l0 5.75q0 0.71875 0.0859375 0.921875q0.0859375 0.203125 0.2890625 0.328125q0.203125 0.125 0.578125 0.125q0.265625 0 0.734375 -0.078125zm7.9645386 -2.109375l1.640625 0.21875q-0.265625 1.6875 -1.375 2.6484375q-1.109375 0.9609375 -2.734375 0.9609375q-2.015625 0 -3.2421875 -1.3203125q-1.2265625 -1.3203125 -1.2265625 -3.7890625q0 -1.59375 0.5234375 -2.7890625q0.5234375 -1.1953125 1.609375 -1.796875q1.0859375 -0.6015625 2.3515625 -0.6015625q1.609375 0 2.625 0.8125q1.015625 0.8125 1.3125 2.3125l-1.625 0.25q-0.234375 -1.0 -0.828125 -1.5q-0.59375 -0.5 -1.421875 -0.5q-1.265625 0 -2.0546875 0.90625q-0.7890625 0.90625 -0.7890625 2.859375q0 1.984375 0.765625 2.8828125q0.765625 0.8984375 1.984375 0.8984375q0.984375 0 1.640625 -0.6015625q0.65625 -0.6015625 0.84375 -1.8515625zm2.890625 3.609375l0 -13.59375l1.671875 0l0 4.875q1.171875 -1.359375 2.953125 -1.359375q1.09375 0 1.8984375 0.4296875q0.8046875 0.4296875 1.15625 1.1953125q0.3515625 0.765625 0.3515625 2.203125l0 6.25l-1.671875 0l0 -6.25q0 -1.25 -0.546875 -1.8203125q-0.546875 -0.5703125 -1.53125 -0.5703125q-0.75 0 -1.3984375 0.3828125q-0.6484375 0.3828125 -0.9296875 1.046875q-0.28125 0.6640625 -0.28125 1.8203125l0 5.390625l-1.671875 0zm16.813232 -1.21875q-0.9375 0.796875 -1.796875 1.1171875q-0.859375 0.3203125 -1.84375 0.3203125q-1.609375 0 -2.484375 -0.7890625q-0.875 -0.7890625 -0.875 -2.0234375q0 -0.734375 0.328125 -1.328125q0.328125 -0.59375 0.859375 -0.953125q0.53125 -0.359375 1.203125 -0.546875q0.5 -0.140625 1.484375 -0.25q2.03125 -0.25 2.984375 -0.578125q0 -0.34375 0 -0.4375q0 -1.015625 -0.46875 -1.4375q-0.640625 -0.5625 -1.90625 -0.5625q-1.171875 0 -1.734375 0.40625q-0.5625 0.40625 -0.828125 1.46875l-1.640625 -0.234375q0.234375 -1.046875 0.7421875 -1.6875q0.5078125 -0.640625 1.46875 -0.9921875q0.9609375 -0.3515625 2.2421875 -0.3515625q1.265625 0 2.046875 0.296875q0.78125 0.296875 1.15625 0.75q0.375 0.453125 0.515625 1.140625q0.09375 0.421875 0.09375 1.53125l0 2.234375q0 2.328125 0.1015625 2.9453125q0.1015625 0.6171875 0.4296875 1.1796875l-1.75 0q-0.265625 -0.515625 -0.328125 -1.21875zm-0.140625 -3.71875q-0.90625 0.359375 -2.734375 0.625q-1.03125 0.140625 -1.453125 0.328125q-0.421875 0.1875 -0.65625 0.546875q-0.234375 0.359375 -0.234375 0.796875q0 0.671875 0.5078125 1.1171875q0.5078125 0.4453125 1.4765625 0.4453125q0.96875 0 1.71875 -0.4296875q0.75 -0.4296875 1.109375 -1.1484375q0.265625 -0.578125 0.265625 -1.671875l0 -0.609375z" fill-rule="nonzero"></path><path fill="#000000" d="m467.2413 79.8394l0 -1.609375l5.765625 0l0 5.046875q-1.328125 1.0625 -2.7421875 1.59375q-1.4140625 0.53125 -2.8984375 0.53125q-2.0 0 -3.6328125 -0.859375q-1.6328125 -0.859375 -2.46875 -2.484375q-0.8359375 -1.625 -0.8359375 -3.625q0 -1.984375 0.828125 -3.703125q0.828125 -1.71875 2.390625 -2.5546875q1.5625 -0.8359375 3.59375 -0.8359375q1.46875 0 2.6640625 0.4765625q1.1953125 0.4765625 1.8671875 1.328125q0.671875 0.8515625 1.03125 2.2265625l-1.625 0.4375q-0.3125 -1.03125 -0.765625 -1.625q-0.453125 -0.59375 -1.296875 -0.953125q-0.84375 -0.359375 -1.875 -0.359375q-1.234375 0 -2.1328125 0.375q-0.8984375 0.375 -1.453125 0.9921875q-0.5546875 0.6171875 -0.8515625 1.3515625q-0.53125 1.25 -0.53125 2.734375q0 1.8125 0.6328125 3.0390625q0.6328125 1.2265625 1.828125 1.8203125q1.1953125 0.59375 2.5390625 0.59375q1.171875 0 2.28125 -0.453125q1.109375 -0.453125 1.6875 -0.953125l0 -2.53125l-4.0 0zm14.683319 2.15625l1.71875 0.21875q-0.40625 1.5 -1.5078125 2.3359375q-1.1015625 0.8359375 -2.8203125 0.8359375q-2.15625 0 -3.421875 -1.328125q-1.265625 -1.328125 -1.265625 -3.734375q0 -2.484375 1.2734375 -3.859375q1.2734375 -1.375 3.3203125 -1.375q1.984375 0 3.234375 1.34375q1.25 1.34375 1.25 3.796875q0 0.140625 -0.015625 0.4375l-7.34375 0q0.09375 1.625 0.921875 2.484375q0.828125 0.859375 2.0625 0.859375q0.90625 0 1.5546875 -0.4765625q0.6484375 -0.4765625 1.0390625 -1.5390625zm-5.484375 -2.703125l5.5 0q-0.109375 -1.234375 -0.625 -1.859375q-0.796875 -0.96875 -2.078125 -0.96875q-1.140625 0 -1.9296875 0.7734375q-0.7890625 0.7734375 -0.8671875 2.0546875zm9.110077 5.875l0 -9.859375l1.5 0l0 1.40625q1.09375 -1.625 3.140625 -1.625q0.890625 0 1.640625 0.3203125q0.75 0.3203125 1.1171875 0.84375q0.3671875 0.5234375 0.5234375 1.2265625q0.09375 0.46875 0.09375 1.625l0 6.0625l-1.671875 0l0 -6.0q0 -1.015625 -0.1953125 -1.5234375q-0.1953125 -0.5078125 -0.6953125 -0.8046875q-0.5 -0.296875 -1.171875 -0.296875q-1.0625 0 -1.8359375 0.671875q-0.7734375 0.671875 -0.7734375 2.578125l0 5.375l-1.671875 0z" fill-rule="nonzero"></path><path fill="#a4c2f4" stroke="#000000" stroke-width="1.0" stroke-linejoin="round" stroke-linecap="butt" d="m545.34644 211.03543l118.80316 0l0 99.3071l-118.80316 0z" fill-rule="nonzero"></path><path fill="#000000" d="m583.23413 266.85303l0 -11.999985l-4.46875 0l0 -1.59375l10.765625 0l0 1.59375l-4.5 0l0 11.999985l-1.796875 0zm14.474121 -3.171875l1.71875 0.21875q-0.40625 1.5 -1.5078125 2.3359375q-1.1015625 0.8359375 -2.8203125 0.8359375q-2.15625 0 -3.421875 -1.328125q-1.265625 -1.328125 -1.265625 -3.734375q0 -2.484375 1.2734375 -3.859375q1.2734375 -1.375 3.3203125 -1.375q1.984375 0 3.234375 1.34375q1.25 1.34375 1.25 3.796875q0 0.140625 -0.015625 0.4375l-7.34375 0q0.09375 1.625 0.921875 2.484375q0.828125 0.859375 2.0625 0.859375q0.90625 0 1.5546875 -0.4765625q0.6484375 -0.4765625 1.0390625 -1.5390625zm-5.484375 -2.703125l5.5 0q-0.109375 -1.234375 -0.625 -1.859375q-0.796875 -0.96875 -2.078125 -0.96875q-1.140625 0 -1.9296875 0.7734375q-0.7890625 0.7734375 -0.8671875 2.0546875zm8.438232 2.9375l1.65625 -0.265625q0.140625 1.0 0.7734375 1.5234375q0.6328125 0.5234375 1.7734375 0.5234375q1.15625 0 1.7109375 -0.46875q0.5546875 -0.46875 0.5546875 -1.09375q0 -0.5625 -0.484375 -0.890625q-0.34375 -0.21875 -1.703125 -0.5625q-1.84375 -0.46875 -2.5546875 -0.8046875q-0.7109375 -0.3359375 -1.078125 -0.9375q-0.3671875 -0.6015625 -0.3671875 -1.3203125q0 -0.65625 0.3046875 -1.21875q0.3046875 -0.5625 0.8203125 -0.9375q0.390625 -0.28125 1.0625 -0.484375q0.671875 -0.203125 1.4375 -0.203125q1.171875 0 2.046875 0.3359375q0.875 0.3359375 1.2890625 0.90625q0.4140625 0.5703125 0.5703125 1.5234375l-1.625 0.21875q-0.109375 -0.75 -0.6484375 -1.1796875q-0.5390625 -0.4296875 -1.5078125 -0.4296875q-1.15625 0 -1.640625 0.3828125q-0.484375 0.3828125 -0.484375 0.8828125q0 0.328125 0.203125 0.59375q0.203125 0.265625 0.640625 0.4375q0.25 0.09375 1.46875 0.4375q1.765625 0.46875 2.46875 0.765625q0.703125 0.296875 1.1015625 0.875q0.3984375 0.578125 0.3984375 1.4375q0 0.828125 -0.484375 1.5703125q-0.484375 0.7421875 -1.40625 1.140625q-0.921875 0.3984375 -2.078125 0.3984375q-1.921875 0 -2.9296875 -0.796875q-1.0078125 -0.796875 -1.2890625 -2.359375zm13.65625 1.4375l0.234375 1.484375q-0.703125 0.140625 -1.265625 0.140625q-0.90625 0 -1.40625 -0.2890625q-0.5 -0.2890625 -0.703125 -0.75q-0.203125 -0.4609375 -0.203125 -1.9765625l0 -5.65625l-1.234375 0l0 -1.3125l1.234375 0l0 -2.4374847l1.65625 -1.0l0 3.4374847l1.6875 0l0 1.3125l-1.6875 0l0 5.75q0 0.71875 0.0859375 0.921875q0.0859375 0.203125 0.2890625 0.328125q0.203125 0.125 0.578125 0.125q0.265625 0 0.734375 -0.078125zm8.277039 -1.671875l1.71875 0.21875q-0.40625 1.5 -1.5078125 2.3359375q-1.1015625 0.8359375 -2.8203125 0.8359375q-2.15625 0 -3.421875 -1.328125q-1.265625 -1.328125 -1.265625 -3.734375q0 -2.484375 1.2734375 -3.859375q1.2734375 -1.375 3.3203125 -1.375q1.984375 0 3.234375 1.34375q1.25 1.34375 1.25 3.796875q0 0.140625 -0.015625 0.4375l-7.34375 0q0.09375 1.625 0.921875 2.484375q0.828125 0.859375 2.0625 0.859375q0.90625 0 1.5546875 -0.4765625q0.6484375 -0.4765625 1.0390625 -1.5390625zm-5.484375 -2.703125l5.5 0q-0.109375 -1.234375 -0.625 -1.859375q-0.796875 -0.96875 -2.078125 -0.96875q-1.140625 0 -1.9296875 0.7734375q-0.7890625 0.7734375 -0.8671875 2.0546875zm9.094482 5.875l0 -9.859375l1.5 0l0 1.5q0.578125 -1.046875 1.0625 -1.3828125q0.484375 -0.3359375 1.078125 -0.3359375q0.84375 0 1.71875 0.546875l-0.578125 1.546875q-0.609375 -0.359375 -1.234375 -0.359375q-0.546875 0 -0.9765625 0.328125q-0.4296875 0.328125 -0.6171875 0.90625q-0.28125 0.890625 -0.28125 1.953125l0 5.15625l-1.671875 0z" fill-rule="nonzero"></path><path fill="#a4c2f4" stroke="#000000" stroke-width="1.0" stroke-linejoin="round" stroke-linecap="butt" d="m46.984253 380.3622l138.3307 0l0 67.370056l-138.3307 0z" fill-rule="nonzero"></path><path fill="#000000" d="m82.901436 420.2113l0 -13.59375l6.03125 0q1.8125 0 2.7578125 0.359375q0.9453125 0.359375 1.5078125 1.2890625q0.5625 0.9296875 0.5625 2.0546875q0 1.453125 -0.9296875 2.4453125q-0.9296875 0.9921875 -2.8984375 1.2578125q0.71875 0.34375 1.09375 0.671875q0.78125 0.734375 1.484375 1.8125l2.375 3.703125l-2.265625 0l-1.796875 -2.828125q-0.796875 -1.21875 -1.3046875 -1.875q-0.5078125 -0.65625 -0.9140625 -0.9140625q-0.40625 -0.2578125 -0.8125 -0.3515625q-0.3125 -0.078125 -1.015625 -0.078125l-2.078125 0l0 6.046875l-1.796875 0zm1.796875 -7.59375l3.859375 0q1.234375 0 1.9296875 -0.2578125q0.6953125 -0.2578125 1.0625 -0.8203125q0.3671875 -0.5625 0.3671875 -1.21875q0 -0.96875 -0.703125 -1.5859375q-0.703125 -0.6171875 -2.21875 -0.6171875l-4.296875 0l0 4.5zm18.176071 4.421875l1.71875 0.21875q-0.40625 1.5 -1.5078125 2.3359375q-1.1015625 0.8359375 -2.8203125 0.8359375q-2.15625 0 -3.421875 -1.328125q-1.265625 -1.328125 -1.265625 -3.734375q0 -2.484375 1.2734375 -3.859375q1.2734375 -1.375 3.3203125 -1.375q1.984375 0 3.234375 1.34375q1.25 1.34375 1.25 3.796875q0 0.140625 -0.015625 0.4375l-7.34375 0q0.09375 1.625 0.921875 2.484375q0.828125 0.859375 2.0625 0.859375q0.90625 0 1.5546875 -0.4765625q0.6484375 -0.4765625 1.0390625 -1.5390625zm-5.484375 -2.703125l5.5 0q-0.109375 -1.234375 -0.625 -1.859375q-0.796875 -0.96875 -2.078125 -0.96875q-1.140625 0 -1.9296875 0.7734375q-0.7890625 0.7734375 -0.8671875 2.0546875zm15.547585 4.65625q-0.9375 0.796875 -1.796875 1.1171875q-0.8593674 0.3203125 -1.8437424 0.3203125q-1.609375 0 -2.484375 -0.7890625q-0.875 -0.7890625 -0.875 -2.0234375q0 -0.734375 0.328125 -1.328125q0.328125 -0.59375 0.859375 -0.953125q0.53125 -0.359375 1.203125 -0.546875q0.5 -0.140625 1.484375 -0.25q2.0312424 -0.25 2.9843674 -0.578125q0 -0.34375 0 -0.4375q0 -1.015625 -0.46875 -1.4375q-0.640625 -0.5625 -1.9062424 -0.5625q-1.171875 0 -1.734375 0.40625q-0.5625 0.40625 -0.828125 1.46875l-1.640625 -0.234375q0.234375 -1.046875 0.7421875 -1.6875q0.5078125 -0.640625 1.46875 -0.9921875q0.9609375 -0.3515625 2.2421875 -0.3515625q1.2656174 0 2.0468674 0.296875q0.78125 0.296875 1.15625 0.75q0.375 0.453125 0.515625 1.140625q0.09375 0.421875 0.09375 1.53125l0 2.234375q0 2.328125 0.1015625 2.9453125q0.1015625 0.6171875 0.4296875 1.1796875l-1.75 0q-0.265625 -0.515625 -0.328125 -1.21875zm-0.140625 -3.71875q-0.90625 0.359375 -2.7343674 0.625q-1.03125 0.140625 -1.453125 0.328125q-0.421875 0.1875 -0.65625 0.546875q-0.234375 0.359375 -0.234375 0.796875q0 0.671875 0.5078125 1.1171875q0.5078125 0.4453125 1.4765625 0.4453125q0.96875 0 1.7187424 -0.4296875q0.75 -0.4296875 1.109375 -1.1484375q0.265625 -0.578125 0.265625 -1.671875l0 -0.609375zm10.469467 4.9375l0 -1.25q-0.9375 1.46875 -2.75 1.46875q-1.171875 0 -2.1640625 -0.6484375q-0.9921875 -0.6484375 -1.53125 -1.8125q-0.5390625 -1.1640625 -0.5390625 -2.6796875q0 -1.46875 0.4921875 -2.671875q0.4921875 -1.203125 1.46875 -1.84375q0.9765625 -0.640625 2.1953125 -0.640625q0.890625 0 1.5859375 0.375q0.6953125 0.375 1.1328125 0.984375l0 -4.875l1.65625 0l0 13.59375l-1.546875 0zm-5.28125 -4.921875q0 1.890625 0.8046875 2.828125q0.8046875 0.9375 1.8828125 0.9375q1.09375 0 1.859375 -0.890625q0.765625 -0.890625 0.765625 -2.734375q0 -2.015625 -0.78125 -2.9609375q-0.78125 -0.9453125 -1.921875 -0.9453125q-1.109375 0 -1.859375 0.90625q-0.75 0.90625 -0.75 2.859375zm9.281967 -6.765625l0 -1.90625l1.671875 0l0 1.90625l-1.671875 0zm0 11.6875l0 -9.859375l1.671875 0l0 9.859375l-1.671875 0zm4.129196 0l0 -9.859375l1.5 0l0 1.40625q1.09375 -1.625 3.140625 -1.625q0.890625 0 1.640625 0.3203125q0.75 0.3203125 1.1171875 0.84375q0.3671875 0.5234375 0.5234375 1.2265625q0.09375 0.46875 0.09375 1.625l0 6.0625l-1.671875 0l0 -6.0q0 -1.015625 -0.1953125 -1.5234375q-0.1953125 -0.5078125 -0.6953125 -0.8046875q-0.5 -0.296875 -1.171875 -0.296875q-1.0625 0 -1.8359375 0.671875q-0.7734375 0.671875 -0.7734375 2.578125l0 5.375l-1.671875 0zm10.078842 0.8125l1.609375 0.25q0.109375 0.75 0.578125 1.09375q0.609375 0.453125 1.6875 0.453125q1.171875 0 1.796875 -0.4609375q0.625 -0.4609375 0.859375 -1.2890625q0.125 -0.515625 0.109375 -2.15625q-1.09375 1.296875 -2.71875 1.296875q-2.03125 0 -3.1484375 -1.46875q-1.1171875 -1.46875 -1.1171875 -3.515625q0 -1.40625 0.515625 -2.6015625q0.515625 -1.1953125 1.484375 -1.84375q0.96875 -0.6484375 2.265625 -0.6484375q1.75 0 2.875 1.40625l0 -1.1875l1.546875 0l0 8.515625q0 2.3125 -0.46875 3.2734375q-0.46875 0.9609375 -1.484375 1.515625q-1.015625 0.5546875 -2.5 0.5546875q-1.765625 0 -2.8515625 -0.796875q-1.0859375 -0.796875 -1.0390625 -2.390625zm1.375 -5.921875q0 1.953125 0.7734375 2.84375q0.7734375 0.890625 1.9296875 0.890625q1.140625 0 1.921875 -0.890625q0.78125 -0.890625 0.78125 -2.78125q0 -1.8125 -0.8046875 -2.7265625q-0.8046875 -0.9140625 -1.9296875 -0.9140625q-1.109375 0 -1.890625 0.8984375q-0.78125 0.8984375 -0.78125 2.6796875z" fill-rule="nonzero"></path><path fill="#a4c2f4" stroke="#000000" stroke-width="1.0" stroke-linejoin="round" stroke-linecap="butt" d="m239.40945 380.3622l189.73227 0l0 67.370056l-189.73227 0z" fill-rule="nonzero"></path><path fill="#000000" d="m276.11813 420.2113l0 -13.59375l5.125 0q1.359375 0 2.078125 0.125q1.0 0.171875 1.671875 0.640625q0.671875 0.46875 1.0859375 1.3125q0.4140625 0.84375 0.4140625 1.84375q0 1.734375 -1.1015625 2.9375q-1.1015625 1.203125 -3.9921875 1.203125l-3.484375 0l0 5.53125l-1.796875 0zm1.796875 -7.140625l3.515625 0q1.75 0 2.4765625 -0.6484375q0.7265625 -0.6484375 0.7265625 -1.8203125q0 -0.859375 -0.4296875 -1.46875q-0.4296875 -0.609375 -1.1328125 -0.796875q-0.453125 -0.125 -1.671875 -0.125l-3.484375 0l0 4.859375zm10.412323 7.140625l0 -9.859375l1.5 0l0 1.5q0.578125 -1.046875 1.0625 -1.3828125q0.484375 -0.3359375 1.078125 -0.3359375q0.84375 0 1.71875 0.546875l-0.578125 1.546875q-0.609375 -0.359375 -1.234375 -0.359375q-0.546875 0 -0.9765625 0.328125q-0.4296875 0.328125 -0.6171875 0.90625q-0.28125 0.890625 -0.28125 1.953125l0 5.15625l-1.671875 0zm12.978302 -3.171875l1.71875 0.21875q-0.40625 1.5 -1.5078125 2.3359375q-1.1015625 0.8359375 -2.8203125 0.8359375q-2.15625 0 -3.421875 -1.328125q-1.265625 -1.328125 -1.265625 -3.734375q0 -2.484375 1.2734375 -3.859375q1.2734375 -1.375 3.3203125 -1.375q1.984375 0 3.234375 1.34375q1.25 1.34375 1.25 3.796875q0 0.140625 -0.015625 0.4375l-7.34375 0q0.09375 1.625 0.921875 2.484375q0.828125 0.859375 2.0625 0.859375q0.90625 0 1.5546875 -0.4765625q0.6484375 -0.4765625 1.0390625 -1.5390625zm-5.484375 -2.703125l5.5 0q-0.109375 -1.234375 -0.625 -1.859375q-0.796875 -0.96875 -2.078125 -0.96875q-1.140625 0 -1.9296875 0.7734375q-0.7890625 0.7734375 -0.8671875 2.0546875zm9.110077 9.65625l0 -13.640625l1.53125 0l0 1.28125q0.53125 -0.75 1.2109375 -1.125q0.6796875 -0.375 1.6328125 -0.375q1.265625 0 2.234375 0.6484375q0.96875 0.6484375 1.4609375 1.8359375q0.4921875 1.1875 0.4921875 2.59375q0 1.515625 -0.546875 2.7265625q-0.546875 1.2109375 -1.578125 1.8515625q-1.03125 0.640625 -2.171875 0.640625q-0.84375 0 -1.5078125 -0.3515625q-0.6640625 -0.3515625 -1.0859375 -0.8828125l0 4.796875l-1.671875 0zm1.515625 -8.65625q0 1.90625 0.7734375 2.8125q0.7734375 0.90625 1.8671875 0.90625q1.109375 0 1.8984375 -0.9375q0.7890625 -0.9375 0.7890625 -2.921875q0 -1.875 -0.7734375 -2.8125q-0.7734375 -0.9375 -1.8515625 -0.9375q-1.0625 0 -1.8828125 1.0q-0.8203125 1.0 -0.8203125 2.890625zm8.844482 4.875l0 -9.859375l1.5 0l0 1.5q0.578125 -1.046875 1.0625 -1.3828125q0.484375 -0.3359375 1.078125 -0.3359375q0.84375 0 1.71875 0.546875l-0.578125 1.546875q-0.609375 -0.359375 -1.234375 -0.359375q-0.546875 0 -0.9765625 0.328125q-0.4296875 0.328125 -0.6171875 0.90625q-0.28125 0.890625 -0.28125 1.953125l0 5.15625l-1.671875 0zm5.603302 -4.921875q0 -2.734375 1.53125 -4.0625q1.265625 -1.09375 3.09375 -1.09375q2.03125 0 3.3203125 1.3359375q1.2890625 1.3359375 1.2890625 3.6796875q0 1.90625 -0.5703125 2.9921875q-0.5703125 1.0859375 -1.65625 1.6875q-1.0859375 0.6015625 -2.3828125 0.6015625q-2.0625 0 -3.34375 -1.328125q-1.28125 -1.328125 -1.28125 -3.8125zm1.71875 0q0 1.890625 0.828125 2.828125q0.828125 0.9375 2.078125 0.9375q1.25 0 2.0703125 -0.9453125q0.8203125 -0.9453125 0.8203125 -2.8828125q0 -1.828125 -0.828125 -2.765625q-0.828125 -0.9375 -2.0625 -0.9375q-1.25 0 -2.078125 0.9375q-0.828125 0.9375 -0.828125 2.828125zm15.719452 1.3125l1.640625 0.21875q-0.265625 1.6875 -1.375 2.6484375q-1.109375 0.9609375 -2.734375 0.9609375q-2.015625 0 -3.2421875 -1.3203125q-1.2265625 -1.3203125 -1.2265625 -3.7890625q0 -1.59375 0.5234375 -2.7890625q0.5234375 -1.1953125 1.609375 -1.796875q1.0859375 -0.6015625 2.3515625 -0.6015625q1.609375 0 2.625 0.8125q1.015625 0.8125 1.3125 2.3125l-1.625 0.25q-0.234375 -1.0 -0.828125 -1.5q-0.59375 -0.5 -1.421875 -0.5q-1.265625 0 -2.0546875 0.90625q-0.7890625 0.90625 -0.7890625 2.859375q0 1.984375 0.765625 2.8828125q0.765625 0.8984375 1.984375 0.8984375q0.984375 0 1.640625 -0.6015625q0.65625 -0.6015625 0.84375 -1.8515625zm9.640625 0.4375l1.71875 0.21875q-0.40625 1.5 -1.5078125 2.3359375q-1.1015625 0.8359375 -2.8203125 0.8359375q-2.15625 0 -3.421875 -1.328125q-1.265625 -1.328125 -1.265625 -3.734375q0 -2.484375 1.2734375 -3.859375q1.2734375 -1.375 3.3203125 -1.375q1.984375 0 3.234375 1.34375q1.25 1.34375 1.25 3.796875q0 0.140625 -0.015625 0.4375l-7.34375 0q0.09375 1.625 0.921875 2.484375q0.828125 0.859375 2.0625 0.859375q0.90625 0 1.5546875 -0.4765625q0.6484375 -0.4765625 1.0390625 -1.5390625zm-5.484375 -2.703125l5.5 0q-0.109375 -1.234375 -0.625 -1.859375q-0.796875 -0.96875 -2.078125 -0.96875q-1.140625 0 -1.9296875 0.7734375q-0.7890625 0.7734375 -0.8671875 2.0546875zm8.438232 2.9375l1.65625 -0.265625q0.140625 1.0 0.7734375 1.5234375q0.6328125 0.5234375 1.7734375 0.5234375q1.15625 0 1.7109375 -0.46875q0.5546875 -0.46875 0.5546875 -1.09375q0 -0.5625 -0.484375 -0.890625q-0.34375 -0.21875 -1.703125 -0.5625q-1.84375 -0.46875 -2.5546875 -0.8046875q-0.7109375 -0.3359375 -1.078125 -0.9375q-0.3671875 -0.6015625 -0.3671875 -1.3203125q0 -0.65625 0.3046875 -1.21875q0.3046875 -0.5625 0.8203125 -0.9375q0.390625 -0.28125 1.0625 -0.484375q0.671875 -0.203125 1.4375 -0.203125q1.171875 0 2.046875 0.3359375q0.875 0.3359375 1.2890625 0.90625q0.4140625 0.5703125 0.5703125 1.5234375l-1.625 0.21875q-0.109375 -0.75 -0.6484375 -1.1796875q-0.5390625 -0.4296875 -1.5078125 -0.4296875q-1.15625 0 -1.640625 0.3828125q-0.484375 0.3828125 -0.484375 0.8828125q0 0.328125 0.203125 0.59375q0.203125 0.265625 0.640625 0.4375q0.25 0.09375 1.46875 0.4375q1.765625 0.46875 2.46875 0.765625q0.703125 0.296875 1.1015625 0.875q0.3984375 0.578125 0.3984375 1.4375q0 0.828125 -0.484375 1.5703125q-0.484375 0.7421875 -1.40625 1.140625q-0.921875 0.3984375 -2.078125 0.3984375q-1.921875 0 -2.9296875 -0.796875q-1.0078125 -0.796875 -1.2890625 -2.359375zm9.328125 0l1.65625 -0.265625q0.140625 1.0 0.7734375 1.5234375q0.6328125 0.5234375 1.7734375 0.5234375q1.15625 0 1.7109375 -0.46875q0.5546875 -0.46875 0.5546875 -1.09375q0 -0.5625 -0.484375 -0.890625q-0.34375 -0.21875 -1.703125 -0.5625q-1.84375 -0.46875 -2.5546875 -0.8046875q-0.7109375 -0.3359375 -1.078125 -0.9375q-0.3671875 -0.6015625 -0.3671875 -1.3203125q0 -0.65625 0.3046875 -1.21875q0.3046875 -0.5625 0.8203125 -0.9375q0.390625 -0.28125 1.0625 -0.484375q0.671875 -0.203125 1.4375 -0.203125q1.171875 0 2.046875 0.3359375q0.875 0.3359375 1.2890625 0.90625q0.4140625 0.5703125 0.5703125 1.5234375l-1.625 0.21875q-0.109375 -0.75 -0.6484375 -1.1796875q-0.5390625 -0.4296875 -1.5078125 -0.4296875q-1.15625 0 -1.640625 0.3828125q-0.484375 0.3828125 -0.484375 0.8828125q0 0.328125 0.203125 0.59375q0.203125 0.265625 0.640625 0.4375q0.25 0.09375 1.46875 0.4375q1.765625 0.46875 2.46875 0.765625q0.703125 0.296875 1.1015625 0.875q0.3984375 0.578125 0.3984375 1.4375q0 0.828125 -0.484375 1.5703125q-0.484375 0.7421875 -1.40625 1.140625q-0.921875 0.3984375 -2.078125 0.3984375q-1.921875 0 -2.9296875 -0.796875q-1.0078125 -0.796875 -1.2890625 -2.359375zm10.015625 -8.75l0 -1.90625l1.671875 0l0 1.90625l-1.671875 0zm0 11.6875l0 -9.859375l1.671875 0l0 9.859375l-1.671875 0zm4.129181 0l0 -9.859375l1.5 0l0 1.40625q1.09375 -1.625 3.140625 -1.625q0.890625 0 1.640625 0.3203125q0.75 0.3203125 1.1171875 0.84375q0.3671875 0.5234375 0.5234375 1.2265625q0.09375 0.46875 0.09375 1.625l0 6.0625l-1.671875 0l0 -6.0q0 -1.015625 -0.1953125 -1.5234375q-0.1953125 -0.5078125 -0.6953125 -0.8046875q-0.5 -0.296875 -1.171875 -0.296875q-1.0625 0 -1.8359375 0.671875q-0.7734375 0.671875 -0.7734375 2.578125l0 5.375l-1.671875 0zm10.078857 0.8125l1.609375 0.25q0.109375 0.75 0.578125 1.09375q0.609375 0.453125 1.6875 0.453125q1.171875 0 1.796875 -0.4609375q0.625 -0.4609375 0.859375 -1.2890625q0.125 -0.515625 0.109375 -2.15625q-1.09375 1.296875 -2.71875 1.296875q-2.03125 0 -3.1484375 -1.46875q-1.1171875 -1.46875 -1.1171875 -3.515625q0 -1.40625 0.515625 -2.6015625q0.515625 -1.1953125 1.484375 -1.84375q0.96875 -0.6484375 2.265625 -0.6484375q1.75 0 2.875 1.40625l0 -1.1875l1.546875 0l0 8.515625q0 2.3125 -0.46875 3.2734375q-0.46875 0.9609375 -1.484375 1.515625q-1.015625 0.5546875 -2.5 0.5546875q-1.765625 0 -2.8515625 -0.796875q-1.0859375 -0.796875 -1.0390625 -2.390625zm1.375 -5.921875q0 1.953125 0.7734375 2.84375q0.7734375 0.890625 1.9296875 0.890625q1.140625 0 1.921875 -0.890625q0.78125 -0.890625 0.78125 -2.78125q0 -1.8125 -0.8046875 -2.7265625q-0.8046875 -0.9140625 -1.9296875 -0.9140625q-1.109375 0 -1.890625 0.8984375q-0.78125 0.8984375 -0.78125 2.6796875z" fill-rule="nonzero"></path><path fill="#a4c2f4" stroke="#000000" stroke-width="1.0" stroke-linejoin="round" stroke-linecap="butt" d="m677.4409 551.50397l161.38586 0l0 63.873962l-161.38586 0z" fill-rule="nonzero"></path><path fill="#000000" d="m732.5851 589.605l0 -13.59375l2.71875 0l3.21875 9.625q0.4375 1.34375 0.640625 2.015625q0.234375 -0.75 0.734375 -2.1875l3.25 -9.453125l2.421875 0l0 13.59375l-1.734375 0l0 -11.390625l-3.953125 11.390625l-1.625 0l-3.9375 -11.578125l0 11.578125l-1.734375 0zm15.4002075 -11.6875l0 -1.90625l1.671875 0l0 1.90625l-1.671875 0zm0 11.6875l0 -9.859375l1.671875 0l0 9.859375l-1.671875 0zm3.0198364 0l3.59375 -5.125l-3.328125 -4.734375l2.09375 0l1.515625 2.3125q0.421875 0.65625 0.671875 1.109375q0.421875 -0.609375 0.765625 -1.09375l1.65625 -2.328125l1.984375 0l-3.390625 4.640625l3.65625 5.21875l-2.046875 0l-2.03125 -3.0625l-0.53125 -0.828125l-2.59375 3.890625l-2.015625 0zm10.453125 -11.6875l0 -1.90625l1.671875 0l0 1.90625l-1.671875 0zm0 11.6875l0 -9.859375l1.671875 0l0 9.859375l-1.671875 0zm4.1291504 0l0 -9.859375l1.5 0l0 1.40625q1.09375 -1.625 3.140625 -1.625q0.890625 0 1.640625 0.3203125q0.75 0.3203125 1.1171875 0.84375q0.3671875 0.5234375 0.5234375 1.2265625q0.09375 0.46875 0.09375 1.625l0 6.0625l-1.671875 0l0 -6.0q0 -1.015625 -0.1953125 -1.5234375q-0.1953125 -0.5078125 -0.6953125 -0.8046875q-0.5 -0.296875 -1.171875 -0.296875q-1.0625 0 -1.8359375 0.671875q-0.7734375 0.671875 -0.7734375 2.578125l0 5.375l-1.671875 0zm10.078857 0.8125l1.609375 0.25q0.109375 0.75 0.578125 1.09375q0.609375 0.453125 1.6875 0.453125q1.171875 0 1.796875 -0.4609375q0.625 -0.4609375 0.859375 -1.2890625q0.125 -0.515625 0.109375 -2.15625q-1.09375 1.296875 -2.71875 1.296875q-2.03125 0 -3.1484375 -1.46875q-1.1171875 -1.46875 -1.1171875 -3.515625q0 -1.40625 0.515625 -2.6015625q0.515625 -1.1953125 1.484375 -1.84375q0.96875 -0.6484375 2.265625 -0.6484375q1.75 0 2.875 1.40625l0 -1.1875l1.546875 0l0 8.515625q0 2.3125 -0.46875 3.2734375q-0.46875 0.9609375 -1.484375 1.515625q-1.015625 0.5546875 -2.5 0.5546875q-1.765625 0 -2.8515625 -0.796875q-1.0859375 -0.796875 -1.0390625 -2.390625zm1.375 -5.921875q0 1.953125 0.7734375 2.84375q0.7734375 0.890625 1.9296875 0.890625q1.140625 0 1.921875 -0.890625q0.78125 -0.890625 0.78125 -2.78125q0 -1.8125 -0.8046875 -2.7265625q-0.8046875 -0.9140625 -1.9296875 -0.9140625q-1.109375 0 -1.890625 0.8984375q-0.78125 0.8984375 -0.78125 2.6796875z" fill-rule="nonzero"></path><path fill="#a4c2f4" stroke="#000000" stroke-width="1.0" stroke-linejoin="round" stroke-linecap="butt" d="m276.6378 212.81496l152.50394 0l0 95.74803l-152.50394 0z" fill-rule="nonzero"></path><path fill="#000000" d="m311.68115 245.39992l0 -12.0l-4.46875 0l0 -1.59375l10.765625 0l0 1.59375l-4.5 0l0 12.0l-1.796875 0zm7.7084656 0l0 -9.859375l1.5 0l0 1.5q0.578125 -1.046875 1.0625 -1.3828125q0.484375 -0.3359375 1.078125 -0.3359375q0.84375 0 1.71875 0.546875l-0.578125 1.546875q-0.609375 -0.359375 -1.234375 -0.359375q-0.546875 0 -0.9765625 0.328125q-0.4296875 0.328125 -0.6171875 0.90625q-0.28125 0.890625 -0.28125 1.953125l0 5.15625l-1.671875 0zm12.665802 -1.21875q-0.9375 0.796875 -1.796875 1.1171875q-0.859375 0.3203125 -1.84375 0.3203125q-1.609375 0 -2.484375 -0.7890625q-0.875 -0.7890625 -0.875 -2.0234375q0 -0.734375 0.328125 -1.328125q0.328125 -0.59375 0.859375 -0.953125q0.53125 -0.359375 1.203125 -0.546875q0.5 -0.140625 1.484375 -0.25q2.03125 -0.25 2.984375 -0.578125q0 -0.34375 0 -0.4375q0 -1.015625 -0.46875 -1.4375q-0.640625 -0.5625 -1.90625 -0.5625q-1.171875 0 -1.734375 0.40625q-0.5625 0.40625 -0.828125 1.46875l-1.640625 -0.234375q0.234375 -1.046875 0.7421875 -1.6875q0.5078125 -0.640625 1.46875 -0.9921875q0.9609375 -0.3515625 2.2421875 -0.3515625q1.265625 0 2.046875 0.296875q0.78125 0.296875 1.15625 0.75q0.375 0.453125 0.515625 1.140625q0.09375 0.421875 0.09375 1.53125l0 2.234375q0 2.328125 0.1015625 2.9453125q0.1015625 0.6171875 0.4296875 1.1796875l-1.75 0q-0.265625 -0.515625 -0.328125 -1.21875zm-0.140625 -3.71875q-0.90625 0.359375 -2.734375 0.625q-1.03125 0.140625 -1.453125 0.328125q-0.421875 0.1875 -0.65625 0.546875q-0.234375 0.359375 -0.234375 0.796875q0 0.671875 0.5078125 1.1171875q0.5078125 0.4453125 1.4765625 0.4453125q0.96875 0 1.71875 -0.4296875q0.75 -0.4296875 1.109375 -1.1484375q0.265625 -0.578125 0.265625 -1.671875l0 -0.609375zm4.0944824 -6.75l0 -1.90625l1.671875 0l0 1.90625l-1.671875 0zm0 11.6875l0 -9.859375l1.671875 0l0 9.859375l-1.671875 0zm4.129181 0l0 -9.859375l1.5 0l0 1.40625q1.09375 -1.625 3.140625 -1.625q0.890625 0 1.640625 0.3203125q0.75 0.3203125 1.1171875 0.84375q0.3671875 0.5234375 0.5234375 1.2265625q0.09375 0.46875 0.09375 1.625l0 6.0625l-1.671875 0l0 -6.0q0 -1.015625 -0.1953125 -1.5234375q-0.1953125 -0.5078125 -0.6953125 -0.8046875q-0.5 -0.296875 -1.171875 -0.296875q-1.0625 0 -1.8359375 0.671875q-0.7734375 0.671875 -0.7734375 2.578125l0 5.375l-1.671875 0zm17.125732 -3.171875l1.71875 0.21875q-0.40625 1.5 -1.5078125 2.3359375q-1.1015625 0.8359375 -2.8203125 0.8359375q-2.15625 0 -3.421875 -1.328125q-1.265625 -1.328125 -1.265625 -3.734375q0 -2.484375 1.2734375 -3.859375q1.2734375 -1.375 3.3203125 -1.375q1.984375 0 3.234375 1.34375q1.25 1.34375 1.25 3.796875q0 0.140625 -0.015625 0.4375l-7.34375 0q0.09375 1.625 0.921875 2.484375q0.828125 0.859375 2.0625 0.859375q0.90625 0 1.5546875 -0.4765625q0.6484375 -0.4765625 1.0390625 -1.5390625zm-5.484375 -2.703125l5.5 0q-0.109375 -1.234375 -0.625 -1.859375q-0.796875 -0.96875 -2.078125 -0.96875q-1.140625 0 -1.9296875 0.7734375q-0.7890625 0.7734375 -0.8671875 2.0546875zm9.094452 5.875l0 -9.859375l1.5 0l0 1.5q0.578125 -1.046875 1.0625 -1.3828125q0.484375 -0.3359375 1.078125 -0.3359375q0.84375 0 1.71875 0.546875l-0.578125 1.546875q-0.609375 -0.359375 -1.234375 -0.359375q-0.546875 0 -0.9765625 0.328125q-0.4296875 0.328125 -0.6171875 0.90625q-0.28125 0.890625 -0.28125 1.953125l0 5.15625l-1.671875 0zm14.599121 4.0q-1.375 -1.75 -2.328125 -4.0859375q-0.953125 -2.3359375 -0.953125 -4.8359375q0 -2.21875 0.703125 -4.234375q0.84375 -2.34375 2.578125 -4.671875l1.203125 0q-1.125 1.921875 -1.484375 2.75q-0.5625 1.28125 -0.890625 2.671875q-0.40625 1.734375 -0.40625 3.484375q0 4.46875 2.78125 8.921875l-1.203125 0zm3.431427 -4.0l0 -8.546875l-1.484375 0l0 -1.3125l1.484375 0l0 -1.046875q0 -0.984375 0.171875 -1.46875q0.234375 -0.65625 0.84375 -1.0546875q0.609375 -0.3984375 1.703125 -0.3984375q0.703125 0 1.5625 0.15625l-0.25 1.46875q-0.515625 -0.09375 -0.984375 -0.09375q-0.765625 0 -1.078125 0.3203125q-0.3125 0.3203125 -0.3125 1.2109375l0 0.90625l1.921875 0l0 1.3125l-1.921875 0l0 8.546875l-1.65625 0zm4.1520386 -4.921875q0 -2.734375 1.53125 -4.0625q1.265625 -1.09375 3.09375 -1.09375q2.03125 0 3.3203125 1.3359375q1.2890625 1.3359375 1.2890625 3.6796875q0 1.90625 -0.5703125 2.9921875q-0.5703125 1.0859375 -1.65625 1.6875q-1.0859375 0.6015625 -2.3828125 0.6015625q-2.0625 0 -3.34375 -1.328125q-1.28125 -1.328125 -1.28125 -3.8125zm1.71875 0q0 1.890625 0.828125 2.828125q0.828125 0.9375 2.078125 0.9375q1.25 0 2.0703125 -0.9453125q0.8203125 -0.9453125 0.8203125 -2.8828125q0 -1.828125 -0.828125 -2.765625q-0.828125 -0.9375 -2.0625 -0.9375q-1.25 0 -2.078125 0.9375q-0.828125 0.9375 -0.828125 2.828125zm9.266357 4.921875l0 -9.859375l1.5 0l0 1.5q0.578125 -1.046875 1.0625 -1.3828125q0.484375 -0.3359375 1.078125 -0.3359375q0.84375 0 1.71875 0.546875l-0.578125 1.546875q-0.609375 -0.359375 -1.234375 -0.359375q-0.546875 0 -0.9765625 0.328125q-0.4296875 0.328125 -0.6171875 0.90625q-0.28125 0.890625 -0.28125 1.953125l0 5.15625l-1.671875 0z" fill-rule="nonzero"></path><path fill="#000000" d="m308.35767 263.91553l1.65625 -0.265625q0.140625 1.0 0.7734375 1.5234375q0.6328125 0.5234375 1.7734375 0.5234375q1.15625 0 1.7109375 -0.46875q0.5546875 -0.46875 0.5546875 -1.09375q0 -0.5625 -0.484375 -0.890625q-0.34375 -0.21875 -1.703125 -0.5625q-1.84375 -0.46875 -2.5546875 -0.8046875q-0.7109375 -0.3359375 -1.078125 -0.9375q-0.3671875 -0.6015625 -0.3671875 -1.3203125q0 -0.65625 0.3046875 -1.21875q0.3046875 -0.5625 0.8203125 -0.9375q0.390625 -0.28125 1.0625 -0.484375q0.671875 -0.203125 1.4375 -0.203125q1.171875 0 2.046875 0.3359375q0.875 0.3359375 1.2890625 0.90625q0.4140625 0.5703125 0.5703125 1.5234375l-1.625 0.21875q-0.109375 -0.75 -0.6484375 -1.1796875q-0.5390625 -0.4296875 -1.5078125 -0.4296875q-1.15625 0 -1.640625 0.3828125q-0.484375 0.3828125 -0.484375 0.8828125q0 0.328125 0.203125 0.59375q0.203125 0.265625 0.640625 0.4375q0.25 0.09375 1.46875 0.4375q1.765625 0.46875 2.46875 0.765625q0.703125 0.296875 1.1015625 0.875q0.3984375 0.578125 0.3984375 1.4375q0 0.828125 -0.484375 1.5703125q-0.484375 0.7421875 -1.40625 1.140625q-0.921875 0.3984375 -2.078125 0.3984375q-1.921875 0 -2.9296875 -0.796875q-1.0078125 -0.796875 -1.2890625 -2.359375zm16.453125 2.9375l0 -1.453125q-1.140625 1.671875 -3.125 1.671875q-0.859375 0 -1.6171875 -0.3359375q-0.7578125 -0.3359375 -1.125 -0.8359375q-0.3671875 -0.5 -0.5234375 -1.234375q-0.09375 -0.5 -0.09375 -1.5625l0 -6.109375l1.671875 0l0 5.46875q0 1.3125 0.09375 1.765625q0.15625 0.65625 0.671875 1.03125q0.515625 0.375 1.265625 0.375q0.75 0 1.40625 -0.3828125q0.65625 -0.3828125 0.9296875 -1.046875q0.2734375 -0.6640625 0.2734375 -1.9296875l0 -5.28125l1.671875 0l0 9.859375l-1.5 0zm3.922577 3.78125l0 -13.640625l1.53125 0l0 1.28125q0.53125 -0.75 1.2109375 -1.125q0.6796875 -0.375 1.6328125 -0.375q1.265625 0 2.234375 0.6484375q0.96875 0.6484375 1.4609375 1.8359375q0.4921875 1.1875 0.4921875 2.59375q0 1.515625 -0.546875 2.7265625q-0.546875 1.2109375 -1.578125 1.8515625q-1.03125 0.640625 -2.171875 0.640625q-0.84375 0 -1.5078125 -0.3515625q-0.6640625 -0.3515625 -1.0859375 -0.8828125l0 4.796875l-1.671875 0zm1.515625 -8.65625q0 1.90625 0.7734375 2.8125q0.7734375 0.90625 1.8671875 0.90625q1.109375 0 1.8984375 -0.9375q0.7890625 -0.9375 0.7890625 -2.921875q0 -1.875 -0.7734375 -2.8125q-0.7734375 -0.9375 -1.8515625 -0.9375q-1.0625 0 -1.8828125 1.0q-0.8203125 1.0 -0.8203125 2.890625zm15.610107 1.703125l1.71875 0.21875q-0.40625 1.5 -1.5078125 2.3359375q-1.1015625 0.8359375 -2.8203125 0.8359375q-2.15625 0 -3.421875 -1.328125q-1.265625 -1.328125 -1.265625 -3.734375q0 -2.484375 1.2734375 -3.859375q1.2734375 -1.375 3.3203125 -1.375q1.984375 0 3.234375 1.34375q1.25 1.34375 1.25 3.796875q0 0.140625 -0.015625 0.4375l-7.34375 0q0.09375 1.625 0.921875 2.484375q0.828125 0.859375 2.0625 0.859375q0.90625 0 1.5546875 -0.4765625q0.6484375 -0.4765625 1.0390625 -1.5390625zm-5.484375 -2.703125l5.5 0q-0.109375 -1.234375 -0.625 -1.859375q-0.796875 -0.96875 -2.078125 -0.96875q-1.140625 0 -1.9296875 0.7734375q-0.7890625 0.7734375 -0.8671875 2.0546875zm9.094452 5.875l0 -9.859375l1.5 0l0 1.5q0.578125 -1.046875 1.0625 -1.3828125q0.484375 -0.3359375 1.078125 -0.3359375q0.84375 0 1.71875 0.546875l-0.578125 1.546875q-0.609375 -0.359375 -1.234375 -0.359375q-0.546875 0 -0.9765625 0.328125q-0.4296875 0.328125 -0.6171875 0.90625q-0.28125 0.890625 -0.28125 1.953125l0 5.15625l-1.671875 0zm8.962677 0l-3.75 -9.859375l1.765625 0l2.125 5.90625q0.34375 0.953125 0.625 1.984375q0.21875 -0.78125 0.625 -1.875l2.1875 -6.015625l1.71875 0l-3.734375 9.859375l-1.5625 0zm6.609375 -11.687485l0 -1.90625l1.671875 0l0 1.90625l-1.671875 0zm0 11.687485l0 -9.859375l1.671875 0l0 9.859375l-1.671875 0zm3.4573364 -2.9375l1.65625 -0.265625q0.140625 1.0 0.7734375 1.5234375q0.6328125 0.5234375 1.7734375 0.5234375q1.15625 0 1.7109375 -0.46875q0.5546875 -0.46875 0.5546875 -1.09375q0 -0.5625 -0.484375 -0.890625q-0.34375 -0.21875 -1.703125 -0.5625q-1.84375 -0.46875 -2.5546875 -0.8046875q-0.7109375 -0.3359375 -1.078125 -0.9375q-0.3671875 -0.6015625 -0.3671875 -1.3203125q0 -0.65625 0.3046875 -1.21875q0.3046875 -0.5625 0.8203125 -0.9375q0.390625 -0.28125 1.0625 -0.484375q0.671875 -0.203125 1.4375 -0.203125q1.171875 0 2.046875 0.3359375q0.875 0.3359375 1.2890625 0.90625q0.4140625 0.5703125 0.5703125 1.5234375l-1.625 0.21875q-0.109375 -0.75 -0.6484375 -1.1796875q-0.5390625 -0.4296875 -1.5078125 -0.4296875q-1.15625 0 -1.640625 0.3828125q-0.484375 0.3828125 -0.484375 0.8828125q0 0.328125 0.203125 0.59375q0.203125 0.265625 0.640625 0.4375q0.25 0.09375 1.46875 0.4375q1.765625 0.46875 2.46875 0.765625q0.703125 0.296875 1.1015625 0.875q0.3984375 0.578125 0.3984375 1.4375q0 0.828125 -0.484375 1.5703125q-0.484375 0.7421875 -1.40625 1.140625q-0.921875 0.3984375 -2.078125 0.3984375q-1.921875 0 -2.9296875 -0.796875q-1.0078125 -0.796875 -1.2890625 -2.359375zm16.75 -0.234375l1.71875 0.21875q-0.40625 1.5 -1.5078125 2.3359375q-1.1015625 0.8359375 -2.8203125 0.8359375q-2.15625 0 -3.421875 -1.328125q-1.265625 -1.328125 -1.265625 -3.734375q0 -2.484375 1.2734375 -3.859375q1.2734375 -1.375 3.3203125 -1.375q1.984375 0 3.234375 1.34375q1.25 1.34375 1.25 3.796875q0 0.140625 -0.015625 0.4375l-7.34375 0q0.09375 1.625 0.921875 2.484375q0.828125 0.859375 2.0625 0.859375q0.90625 0 1.5546875 -0.4765625q0.6484375 -0.4765625 1.0390625 -1.5390625zm-5.484375 -2.703125l5.5 0q-0.109375 -1.234375 -0.625 -1.859375q-0.796875 -0.96875 -2.078125 -0.96875q-1.140625 0 -1.9296875 0.7734375q-0.7890625 0.7734375 -0.8671875 2.0546875zm15.500702 5.875l0 -1.25q-0.9375 1.46875 -2.75 1.46875q-1.171875 0 -2.1640625 -0.6484375q-0.9921875 -0.6484375 -1.53125 -1.8125q-0.5390625 -1.1640625 -0.5390625 -2.6796875q0 -1.46875 0.4921875 -2.671875q0.4921875 -1.203125 1.46875 -1.84375q0.9765625 -0.640625 2.1953125 -0.640625q0.890625 0 1.5859375 0.375q0.6953125 0.375 1.1328125 0.984375l0 -4.8749847l1.65625 0l0 13.593735l-1.546875 0zm-5.28125 -4.921875q0 1.890625 0.8046875 2.828125q0.8046875 0.9375 1.8828125 0.9375q1.09375 0 1.859375 -0.890625q0.765625 -0.890625 0.765625 -2.734375q0 -2.015625 -0.78125 -2.9609375q-0.78125 -0.9453125 -1.921875 -0.9453125q-1.109375 0 -1.859375 0.90625q-0.75 0.90625 -0.75 2.859375z" fill-rule="nonzero"></path><path fill="#000000" d="m315.62704 285.36865l1.65625 -0.265625q0.140625 1.0 0.7734375 1.5234375q0.6328125 0.5234375 1.7734375 0.5234375q1.15625 0 1.7109375 -0.46875q0.5546875 -0.46875 0.5546875 -1.09375q0 -0.5625 -0.484375 -0.890625q-0.34375 -0.21875 -1.703125 -0.5625q-1.84375 -0.46875 -2.5546875 -0.8046875q-0.7109375 -0.3359375 -1.078125 -0.9375q-0.3671875 -0.6015625 -0.3671875 -1.3203125q0 -0.65625 0.3046875 -1.21875q0.3046875 -0.5625 0.8203125 -0.9375q0.390625 -0.28125 1.0625 -0.484375q0.671875 -0.203125 1.4375 -0.203125q1.171875 0 2.046875 0.3359375q0.875 0.3359375 1.2890625 0.90625q0.4140625 0.5703125 0.5703125 1.5234375l-1.625 0.21875q-0.109375 -0.75 -0.6484375 -1.1796875q-0.5390625 -0.4296875 -1.5078125 -0.4296875q-1.15625 0 -1.640625 0.3828125q-0.484375 0.3828125 -0.484375 0.8828125q0 0.328125 0.203125 0.59375q0.203125 0.265625 0.640625 0.4375q0.25 0.09375 1.46875 0.4375q1.765625 0.46875 2.46875 0.765625q0.703125 0.296875 1.1015625 0.875q0.3984375 0.578125 0.3984375 1.4375q0 0.828125 -0.484375 1.5703125q-0.484375 0.7421875 -1.40625 1.140625q-0.921875 0.3984375 -2.078125 0.3984375q-1.921875 0 -2.9296875 -0.796875q-1.0078125 -0.796875 -1.2890625 -2.359375zm16.4375 1.71875q-0.9375 0.796875 -1.796875 1.1171875q-0.859375 0.3203125 -1.84375 0.3203125q-1.609375 0 -2.484375 -0.7890625q-0.875 -0.7890625 -0.875 -2.0234375q0 -0.734375 0.328125 -1.328125q0.328125 -0.59375 0.859375 -0.953125q0.53125 -0.359375 1.203125 -0.546875q0.5 -0.140625 1.484375 -0.25q2.03125 -0.25 2.984375 -0.578125q0 -0.34375 0 -0.4375q0 -1.015625 -0.46875 -1.4375q-0.640625 -0.5625 -1.90625 -0.5625q-1.171875 0 -1.734375 0.40625q-0.5625 0.40625 -0.828125 1.46875l-1.640625 -0.234375q0.234375 -1.046875 0.7421875 -1.6875q0.5078125 -0.640625 1.46875 -0.9921875q0.9609375 -0.3515625 2.2421875 -0.3515625q1.265625 0 2.046875 0.296875q0.78125 0.296875 1.15625 0.75q0.375 0.453125 0.515625 1.140625q0.09375 0.421875 0.09375 1.53125l0 2.234375q0 2.328125 0.1015625 2.9453125q0.1015625 0.6171875 0.4296875 1.1796875l-1.75 0q-0.265625 -0.515625 -0.328125 -1.21875zm-0.140625 -3.71875q-0.90625 0.359375 -2.734375 0.625q-1.03125 0.140625 -1.453125 0.328125q-0.421875 0.1875 -0.65625 0.546875q-0.234375 0.359375 -0.234375 0.796875q0 0.671875 0.5078125 1.1171875q0.5078125 0.4453125 1.4765625 0.4453125q0.96875 0 1.71875 -0.4296875q0.75 -0.4296875 1.109375 -1.1484375q0.265625 -0.578125 0.265625 -1.671875l0 -0.609375zm4.078827 4.9375l0 -9.859375l1.5 0l0 1.390625q0.453125 -0.71875 1.2265625 -1.1640625q0.7734375 -0.4453125 1.7578125 -0.4453125q1.09375 0 1.796875 0.453125q0.703125 0.453125 0.984375 1.28125q1.171875 -1.734375 3.046875 -1.734375q1.46875 0 2.2578125 0.8125q0.7890625 0.8125 0.7890625 2.5l0 6.765625l-1.671875 0l0 -6.203125q0 -1.0 -0.15625 -1.4453125q-0.15625 -0.4453125 -0.5859375 -0.7109375q-0.4296875 -0.265625 -1.0078125 -0.265625q-1.03125 0 -1.71875 0.6875q-0.6875 0.6875 -0.6875 2.21875l0 5.71875l-1.671875 0l0 -6.40625q0 -1.109375 -0.40625 -1.6640625q-0.40625 -0.5546875 -1.34375 -0.5546875q-0.703125 0 -1.3046875 0.3671875q-0.6015625 0.3671875 -0.8671875 1.0859375q-0.265625 0.71875 -0.265625 2.0625l0 5.109375l-1.671875 0zm15.540802 3.78125l0 -13.640625l1.53125 0l0 1.28125q0.53125 -0.75 1.2109375 -1.125q0.6796875 -0.375 1.6328125 -0.375q1.265625 0 2.234375 0.6484375q0.96875 0.6484375 1.4609375 1.8359375q0.4921875 1.1875 0.4921875 2.59375q0 1.515625 -0.546875 2.7265625q-0.546875 1.2109375 -1.578125 1.8515625q-1.03125 0.640625 -2.171875 0.640625q-0.84375 0 -1.5078125 -0.3515625q-0.6640625 -0.3515625 -1.0859375 -0.8828125l0 4.796875l-1.671875 0zm1.515625 -8.65625q0 1.90625 0.7734375 2.8125q0.7734375 0.90625 1.8671875 0.90625q1.109375 0 1.8984375 -0.9375q0.7890625 -0.9375 0.7890625 -2.921875q0 -1.875 -0.7734375 -2.8125q-0.7734375 -0.9375 -1.8515625 -0.9375q-1.0625 0 -1.8828125 1.0q-0.8203125 1.0 -0.8203125 2.890625zm8.828857 4.875l0 -13.59375l1.671875 0l0 13.59375l-1.671875 0zm10.926056 -3.171875l1.71875 0.21875q-0.40625 1.5 -1.5078125 2.3359375q-1.1015625 0.8359375 -2.8203125 0.8359375q-2.15625 0 -3.421875 -1.328125q-1.265625 -1.328125 -1.265625 -3.734375q0 -2.484375 1.2734375 -3.859375q1.2734375 -1.375 3.3203125 -1.375q1.984375 0 3.234375 1.34375q1.25 1.34375 1.25 3.796875q0 0.140625 -0.015625 0.4375l-7.34375 0q0.09375 1.625 0.921875 2.484375q0.828125 0.859375 2.0625 0.859375q0.90625 0 1.5546875 -0.4765625q0.6484375 -0.4765625 1.0390625 -1.5390625zm-5.484375 -2.703125l5.5 0q-0.109375 -1.234375 -0.625 -1.859375q-0.796875 -0.96875 -2.078125 -0.96875q-1.140625 0 -1.9296875 0.7734375q-0.7890625 0.7734375 -0.8671875 2.0546875zm8.438232 2.9375l1.65625 -0.265625q0.140625 1.0 0.7734375 1.5234375q0.6328125 0.5234375 1.7734375 0.5234375q1.15625 0 1.7109375 -0.46875q0.5546875 -0.46875 0.5546875 -1.09375q0 -0.5625 -0.484375 -0.890625q-0.34375 -0.21875 -1.703125 -0.5625q-1.84375 -0.46875 -2.5546875 -0.8046875q-0.7109375 -0.3359375 -1.078125 -0.9375q-0.3671875 -0.6015625 -0.3671875 -1.3203125q0 -0.65625 0.3046875 -1.21875q0.3046875 -0.5625 0.8203125 -0.9375q0.390625 -0.28125 1.0625 -0.484375q0.671875 -0.203125 1.4375 -0.203125q1.171875 0 2.046875 0.3359375q0.875 0.3359375 1.2890625 0.90625q0.4140625 0.5703125 0.5703125 1.5234375l-1.625 0.21875q-0.109375 -0.75 -0.6484375 -1.1796875q-0.5390625 -0.4296875 -1.5078125 -0.4296875q-1.15625 0 -1.640625 0.3828125q-0.484375 0.3828125 -0.484375 0.8828125q0 0.328125 0.203125 0.59375q0.203125 0.265625 0.640625 0.4375q0.25 0.09375 1.46875 0.4375q1.765625 0.46875 2.46875 0.765625q0.703125 0.296875 1.1015625 0.875q0.3984375 0.578125 0.3984375 1.4375q0 0.828125 -0.484375 1.5703125q-0.484375 0.7421875 -1.40625 1.140625q-0.921875 0.3984375 -2.078125 0.3984375q-1.921875 0 -2.9296875 -0.796875q-1.0078125 -0.796875 -1.2890625 -2.359375zm11.09375 6.9375l-1.1875 0q2.765625 -4.453125 2.765625 -8.921875q0 -1.734375 -0.390625 -3.453125q-0.328125 -1.390625 -0.890625 -2.671875q-0.359375 -0.84375 -1.484375 -2.78125l1.1875 0q1.75 2.328125 2.578125 4.671875q0.71875 2.015625 0.71875 4.234375q0 2.5 -0.9609375 4.8359375q-0.9609375 2.3359375 -2.3359375 4.0859375z" fill-rule="nonzero"></path><path stroke="#000000" stroke-width="2.0" stroke-linejoin="round" stroke-linecap="butt" d="m185.31496 414.04724l42.094498 0" fill-rule="evenodd"></path><path fill="#000000" stroke="#000000" stroke-width="2.0" stroke-linecap="butt" d="m227.40945 417.3507l9.076187 -3.3034668l-9.076187 -3.3034668z" fill-rule="evenodd"></path><path stroke="#000000" stroke-width="2.0" stroke-linejoin="round" stroke-linecap="butt" d="m477.04462 114.38714l-114.751434 90.97294" fill-rule="evenodd"></path><path fill="#000000" stroke="#000000" stroke-width="2.0" stroke-linecap="butt" d="m360.24097 202.77141l-5.0600586 8.227173l9.164551 -3.0498505z" fill-rule="evenodd"></path><path stroke="#000000" stroke-width="2.0" stroke-linejoin="round" stroke-linecap="butt" d="m477.04462 114.38714l118.13483 89.40659" fill-rule="evenodd"></path><path fill="#000000" stroke="#000000" stroke-width="2.0" stroke-linecap="butt" d="m593.1859 206.42787l9.230713 2.8431244l-5.2436523 -8.111374z" fill-rule="evenodd"></path><path fill="#000000" d="m154.40839 617.0848l0 -2.4375q-1.9375 2.812439 -5.265625 2.812439q-1.46875 0 -2.7421875 -0.56243896q-1.2734375 -0.5625 -1.890625 -1.4140625q-0.6171875 -0.8515625 -0.8671875 -2.0859375q-0.171875 -0.828125 -0.171875 -2.625l0 -10.28125l2.8125 0l0 9.203125q0 2.203125 0.171875 2.96875q0.265625 1.109375 1.125 1.7421875q0.859375 0.6328125 2.125 0.6328125q1.265625 0 2.375 -0.6484375q1.109375 -0.6484375 1.5703125 -1.765625q0.4609375 -1.1171875 0.4609375 -3.2421875l0 -8.890625l2.8125 0l0 16.59375l-2.515625 0zm6.921875 0l0 -16.59375l2.53125 0l0 2.359375q1.828125 -2.734375 5.28125 -2.734375q1.5 0 2.7578125 0.5390625q1.2578125 0.5390625 1.8828125 1.4140625q0.625 0.875 0.875 2.078125q0.15625 0.78125 0.15625 2.734375l0 10.203125l-2.8125 0l0 -10.09375q0 -1.71875 -0.328125 -2.5703125q-0.328125 -0.8515625 -1.1640625 -1.359375q-0.8359375 -0.5078125 -1.9609375 -0.5078125q-1.796875 0 -3.1015625 1.140625q-1.3046875 1.140625 -1.3046875 4.328125l0 9.0625l-2.8125 0zm34.5 -8.03125l3.03125 0.765625q-0.953125 3.734375 -3.4296875 5.6953125q-2.4765625 1.9608765 -6.0546875 1.9608765q-3.703125 0 -6.0234375 -1.5077515q-2.3203125 -1.5078125 -3.53125 -4.3671875q-1.2109375 -2.859375 -1.2109375 -6.140625q0 -3.578125 1.3671875 -6.2421875q1.3671875 -2.6640625 3.890625 -4.046875q2.5234375 -1.3828125 5.5546875 -1.3828125q3.4375 0 5.78125 1.75q2.34375 1.75 3.265625 4.921875l-2.984375 0.703125q-0.796875 -2.5 -2.3125 -3.640625q-1.515625 -1.140625 -3.8125 -1.140625q-2.640625 0 -4.4140625 1.265625q-1.7734375 1.265625 -2.4921875 3.3984375q-0.71875 2.1328125 -0.71875 4.3984375q0 2.921875 0.8515625 5.1015625q0.8515625 2.1796875 2.6484375 3.2578125q1.796875 1.078125 3.890625 1.078125q2.546875 0 4.3125 -1.46875q1.765625 -1.46875 2.390625 -4.359375zm4.25 8.03125l8.796875 -22.90625l3.265625 0l9.375 22.90625l-3.453125 0l-2.671875 -6.9375l-9.578125 0l-2.515625 6.9375l-3.21875 0zm6.609375 -9.40625l7.765625 0l-2.390625 -6.34375q-1.09375 -2.890625 -1.625 -4.75q-0.4375 2.203125 -1.234375 4.375l-2.515625 6.71875zm17.25 9.40625l0 -22.90625l8.640625 0q2.28125 0 3.484375 0.21875q1.6875 0.28125 2.828125 1.0703125q1.140625 0.7890625 1.8359375 2.2109375q0.6953125 1.421875 0.6953125 3.125q0 2.921875 -1.859375 4.9453125q-1.859375 2.0234375 -6.71875 2.0234375l-5.875 0l0 9.3125l-3.03125 0zm3.03125 -12.015625l5.921875 0q2.9375 0 4.171875 -1.09375q1.234375 -1.09375 1.234375 -3.078125q0 -1.4375 -0.7265625 -2.4609375q-0.7265625 -1.0234375 -1.9140625 -1.3515625q-0.765625 -0.203125 -2.828125 -0.203125l-5.859375 0l0 8.1875zm24.140625 12.015625l0 -20.203125l-7.546875 0l0 -2.703125l18.15625 0l0 2.703125l-7.578125 0l0 20.203125l-3.03125 0zm30.0625 -8.03125l3.03125 0.765625q-0.953125 3.734375 -3.4296875 5.6953125q-2.4765625 1.9608765 -6.0546875 1.9608765q-3.703125 0 -6.0234375 -1.5077515q-2.3203125 -1.5078125 -3.53125 -4.3671875q-1.2109375 -2.859375 -1.2109375 -6.140625q0 -3.578125 1.3671875 -6.2421875q1.3671875 -2.6640625 3.890625 -4.046875q2.5234375 -1.3828125 5.5546875 -1.3828125q3.4375 0 5.78125 1.75q2.34375 1.75 3.265625 4.921875l-2.984375 0.703125q-0.796875 -2.5 -2.3125 -3.640625q-1.515625 -1.140625 -3.8125 -1.140625q-2.640625 0 -4.4140625 1.265625q-1.7734375 1.265625 -2.4921875 3.3984375q-0.71875 2.1328125 -0.71875 4.3984375q0 2.921875 0.8515625 5.1015625q0.8515625 2.1796875 2.6484375 3.2578125q1.796875 1.078125 3.890625 1.078125q2.546875 0 4.3125 -1.46875q1.765625 -1.46875 2.390625 -4.359375zm6.859375 8.03125l0 -22.90625l3.03125 0l0 9.40625l11.90625 0l0 -9.40625l3.03125 0l0 22.90625l-3.03125 0l0 -10.796875l-11.90625 0l0 10.796875l-3.03125 0zm20.5 0l8.796875 -22.90625l3.265625 0l9.375 22.90625l-3.453125 0l-2.671875 -6.9375l-9.578125 0l-2.515625 6.9375l-3.21875 0zm6.609375 -9.40625l7.765625 0l-2.390625 -6.34375q-1.09375 -2.890625 -1.625 -4.75q-0.4375 2.203125 -1.234375 4.375l-2.515625 6.71875zm26.203125 9.40625l0 -22.90625l16.5625 0l0 2.703125l-13.53125 0l0 7.015625l12.671875 0l0 2.6875l-12.671875 0l0 7.796875l14.0625 0l0 2.703125l-17.09375 0zm20.921875 0l0 -16.59375l2.53125 0l0 2.359375q1.828125 -2.734375 5.28125 -2.734375q1.5 0 2.7578125 0.5390625q1.2578125 0.5390625 1.8828125 1.4140625q0.625 0.875 0.875 2.078125q0.15625 0.78125 0.15625 2.734375l0 10.203125l-2.8125 0l0 -10.09375q0 -1.71875 -0.328125 -2.5703125q-0.328125 -0.8515625 -1.1640625 -1.359375q-0.8359375 -0.5078125 -1.9609375 -0.5078125q-1.796875 0 -3.1015625 1.140625q-1.3046875 1.140625 -1.3046875 4.328125l0 9.0625l-2.8125 0zm17.28125 1.374939l2.734375 0.40625q0.171875 1.265625 0.953125 1.84375q1.046875 0.78125 2.859375 0.78125q1.953125 0 3.015625 -0.78125q1.0625 -0.78125 1.4375 -2.1875q0.21875 -0.859375 0.203125 -3.609314q-1.84375 2.171875 -4.59375 2.171875q-3.421875 0 -5.296875 -2.46875q-1.875 -2.46875 -1.875 -5.921875q0 -2.375 0.859375 -4.3828125q0.859375 -2.0078125 2.4921875 -3.1015625q1.6328125 -1.09375 3.8359375 -1.09375q2.9375 0 4.84375 2.375l0 -2.0l2.59375 0l0 14.34375q0 3.874939 -0.7890625 5.4921265q-0.7890625 1.6171875 -2.5 2.5546875q-1.7109375 0.9375 -4.2109375 0.9375q-2.96875 0 -4.796875 -1.3359375q-1.828125 -1.3359375 -1.765625 -4.0234375zm2.328125 -9.968689q0 3.265625 1.296875 4.765625q1.296875 1.5 3.25 1.5q1.9375 0 3.25 -1.4921875q1.3125 -1.4921875 1.3125 -4.6796875q0 -3.046875 -1.3515625 -4.59375q-1.3515625 -1.546875 -3.2578125 -1.546875q-1.875 0 -3.1875 1.5234375q-1.3125 1.5234375 -1.3125 4.5234375zm16.0 -11.078125l0 -3.234375l2.8125 0l0 3.234375l-2.8125 0zm0 19.671875l0 -16.59375l2.8125 0l0 16.59375l-2.8125 0zm7.09375 0l0 -16.59375l2.53125 0l0 2.359375q1.828125 -2.734375 5.28125 -2.734375q1.5 0 2.7578125 0.5390625q1.2578125 0.5390625 1.8828125 1.4140625q0.625 0.875 0.875 2.078125q0.15625 0.78125 0.15625 2.734375l0 10.203125l-2.8125 0l0 -10.09375q0 -1.71875 -0.328125 -2.5703125q-0.328125 -0.8515625 -1.1640625 -1.359375q-0.8359375 -0.5078125 -1.9609375 -0.5078125q-1.796875 0 -3.1015625 1.140625q-1.3046875 1.140625 -1.3046875 4.328125l0 9.0625l-2.8125 0zm29.15625 -5.34375l2.90625 0.359375q-0.6875 2.546875 -2.546875 3.953125q-1.859375 1.406189 -4.75 1.406189q-3.640625 0 -5.7734375 -2.2421265q-2.1328125 -2.2421875 -2.1328125 -6.2890625q0 -4.1875 2.15625 -6.5q2.15625 -2.3125 5.59375 -2.3125q3.328125 0 5.4375 2.265625q2.109375 2.265625 2.109375 6.375q0 0.25 -0.015625 0.75l-12.375 0q0.15625 2.734375 1.546875 4.1875q1.390625 1.453125 3.46875 1.453125q1.546875 0 2.640625 -0.8125q1.09375 -0.8125 1.734375 -2.59375zm-9.234375 -4.546875l9.265625 0q-0.1875 -2.09375 -1.0625 -3.140625q-1.34375 -1.625 -3.484375 -1.625q-1.9375 0 -3.2578125 1.296875q-1.3203125 1.296875 -1.4609375 3.46875z" fill-rule="nonzero"></path><path stroke="#000000" stroke-width="2.0" stroke-linejoin="round" stroke-linecap="butt" d="m352.88977 308.563l112.70697 35.424225" fill-rule="evenodd"></path><path fill="#000000" stroke="#000000" stroke-width="2.0" stroke-linecap="butt" d="m464.60623 347.13867l9.649109 -0.4300537l-7.6680603 -5.8728943z" fill-rule="evenodd"></path><path stroke="#000000" stroke-width="2.0" stroke-linejoin="round" stroke-linecap="butt" d="m604.74805 310.34253l-116.18332 33.883118" fill-rule="evenodd"></path><path fill="#000000" stroke="#000000" stroke-width="2.0" stroke-linecap="butt" d="m487.63983 341.0543l-7.78833 5.712433l9.638092 0.63027954z" fill-rule="evenodd"></path><path fill="#a4c2f4" stroke="#000000" stroke-width="1.0" stroke-linejoin="round" stroke-linecap="butt" d="m260.68503 484.12073l147.18112 0l0 65.60632l-147.18112 0z" fill-rule="nonzero"></path><path fill="#000000" d="m295.21094 523.08795l0 -13.59375l1.796875 0l0 11.984375l6.703125 0l0 1.609375l-8.5 0zm16.672607 -1.21875q-0.9375 0.796875 -1.796875 1.1171875q-0.859375 0.3203125 -1.84375 0.3203125q-1.609375 0 -2.484375 -0.7890625q-0.875 -0.7890625 -0.875 -2.0234375q0 -0.734375 0.328125 -1.328125q0.328125 -0.59375 0.859375 -0.953125q0.53125 -0.359375 1.203125 -0.546875q0.5 -0.140625 1.484375 -0.25q2.03125 -0.25 2.984375 -0.578125q0 -0.34375 0 -0.4375q0 -1.015625 -0.46875 -1.4375q-0.640625 -0.5625 -1.90625 -0.5625q-1.171875 0 -1.734375 0.40625q-0.5625 0.40625 -0.828125 1.46875l-1.640625 -0.234375q0.234375 -1.046875 0.7421875 -1.6875q0.5078125 -0.640625 1.46875 -0.9921875q0.9609375 -0.3515625 2.2421875 -0.3515625q1.265625 0 2.046875 0.296875q0.78125 0.296875 1.15625 0.75q0.375 0.453125 0.515625 1.140625q0.09375 0.421875 0.09375 1.53125l0 2.234375q0 2.328125 0.1015625 2.9453125q0.1015625 0.6171875 0.4296875 1.1796875l-1.75 0q-0.265625 -0.515625 -0.328125 -1.21875zm-0.140625 -3.71875q-0.90625 0.359375 -2.734375 0.625q-1.03125 0.140625 -1.453125 0.328125q-0.421875 0.1875 -0.65625 0.546875q-0.234375 0.359375 -0.234375 0.796875q0 0.671875 0.5078125 1.1171875q0.5078125 0.4453125 1.4765625 0.4453125q0.96875 0 1.71875 -0.4296875q0.75 -0.4296875 1.109375 -1.1484375q0.265625 -0.578125 0.265625 -1.671875l0 -0.609375zm4.000702 8.734375l-0.171875 -1.5625q0.546875 0.140625 0.953125 0.140625q0.546875 0 0.8828125 -0.1875q0.3359375 -0.1875 0.5546875 -0.515625q0.15625 -0.25 0.5 -1.25q0.046875 -0.140625 0.15625 -0.40625l-3.734375 -9.875l1.796875 0l2.046875 5.71875q0.40625 1.078125 0.71875 2.28125q0.28125 -1.15625 0.6875 -2.25l2.09375 -5.75l1.671875 0l-3.75 10.03125q-0.59375 1.625 -0.9375 2.234375q-0.4375 0.828125 -1.015625 1.2109375q-0.578125 0.3828125 -1.375 0.3828125q-0.484375 0 -1.078125 -0.203125zm8.78125 -8.71875q0 -2.734375 1.53125 -4.0625q1.265625 -1.09375 3.09375 -1.09375q2.03125 0 3.3203125 1.3359375q1.2890625 1.3359375 1.2890625 3.6796875q0 1.90625 -0.5703125 2.9921875q-0.5703125 1.0859375 -1.65625 1.6875q-1.0859375 0.6015625 -2.3828125 0.6015625q-2.0625 0 -3.34375 -1.328125q-1.28125 -1.328125 -1.28125 -3.8125zm1.71875 0q0 1.890625 0.828125 2.828125q0.828125 0.9375 2.078125 0.9375q1.25 0 2.0703125 -0.9453125q0.8203125 -0.9453125 0.8203125 -2.8828125q0 -1.828125 -0.828125 -2.765625q-0.828125 -0.9375 -2.0625 -0.9375q-1.25 0 -2.078125 0.9375q-0.828125 0.9375 -0.828125 2.828125zm15.735107 4.921875l0 -1.453125q-1.140625 1.671875 -3.125 1.671875q-0.859375 0 -1.6171875 -0.3359375q-0.7578125 -0.3359375 -1.125 -0.8359375q-0.3671875 -0.5 -0.5234375 -1.234375q-0.09375 -0.5 -0.09375 -1.5625l0 -6.109375l1.671875 0l0 5.46875q0 1.3125 0.09375 1.765625q0.15625 0.65625 0.671875 1.03125q0.515625 0.375 1.265625 0.375q0.75 0 1.40625 -0.3828125q0.65625 -0.3828125 0.9296875 -1.046875q0.2734375 -0.6640625 0.2734375 -1.9296875l0 -5.28125l1.671875 0l0 9.859375l-1.5 0zm7.578827 -1.5l0.234375 1.484375q-0.703125 0.140625 -1.265625 0.140625q-0.90625 0 -1.40625 -0.2890625q-0.5 -0.2890625 -0.703125 -0.75q-0.203125 -0.4609375 -0.203125 -1.9765625l0 -5.65625l-1.234375 0l0 -1.3125l1.234375 0l0 -2.4375l1.65625 -1.0l0 3.4375l1.6875 0l0 1.3125l-1.6875 0l0 5.75q0 0.71875 0.0859375 0.921875q0.0859375 0.203125 0.2890625 0.328125q0.203125 0.125 0.578125 0.125q0.265625 0 0.734375 -0.078125zm1.5426941 -10.1875l0 -1.90625l1.671875 0l0 1.90625l-1.671875 0zm0 11.6875l0 -9.859375l1.671875 0l0 9.859375l-1.671875 0zm4.129181 0l0 -9.859375l1.5 0l0 1.40625q1.09375 -1.625 3.140625 -1.625q0.890625 0 1.640625 0.3203125q0.75 0.3203125 1.1171875 0.84375q0.3671875 0.5234375 0.5234375 1.2265625q0.09375 0.46875 0.09375 1.625l0 6.0625l-1.671875 0l0 -6.0q0 -1.015625 -0.1953125 -1.5234375q-0.1953125 -0.5078125 -0.6953125 -0.8046875q-0.5 -0.296875 -1.171875 -0.296875q-1.0625 0 -1.8359375 0.671875q-0.7734375 0.671875 -0.7734375 2.578125l0 5.375l-1.671875 0zm10.078857 0.8125l1.609375 0.25q0.109375 0.75 0.578125 1.09375q0.609375 0.453125 1.6875 0.453125q1.171875 0 1.796875 -0.4609375q0.625 -0.4609375 0.859375 -1.2890625q0.125 -0.515625 0.109375 -2.15625q-1.09375 1.296875 -2.71875 1.296875q-2.03125 0 -3.1484375 -1.46875q-1.1171875 -1.46875 -1.1171875 -3.515625q0 -1.40625 0.515625 -2.6015625q0.515625 -1.1953125 1.484375 -1.84375q0.96875 -0.6484375 2.265625 -0.6484375q1.75 0 2.875 1.40625l0 -1.1875l1.546875 0l0 8.515625q0 2.3125 -0.46875 3.2734375q-0.46875 0.9609375 -1.484375 1.515625q-1.015625 0.5546875 -2.5 0.5546875q-1.765625 0 -2.8515625 -0.796875q-1.0859375 -0.796875 -1.0390625 -2.390625zm1.375 -5.921875q0 1.953125 0.7734375 2.84375q0.7734375 0.890625 1.9296875 0.890625q1.140625 0 1.921875 -0.890625q0.78125 -0.890625 0.78125 -2.78125q0 -1.8125 -0.8046875 -2.7265625q-0.8046875 -0.9140625 -1.9296875 -0.9140625q-1.109375 0 -1.890625 0.8984375q-0.78125 0.8984375 -0.78125 2.6796875z" fill-rule="nonzero"></path><path fill="#a4c2f4" stroke="#000000" stroke-width="1.0" stroke-linejoin="round" stroke-linecap="butt" d="m464.62466 447.73227l147.18112 0l0 65.60629l-147.18112 0z" fill-rule="nonzero"></path><path fill="#000000" d="m494.49106 486.6995l0 -13.59375l1.796875 0l0 11.984375l6.703125 0l0 1.609375l-8.5 0zm10.250732 -11.6875l0 -1.90625l1.671875 0l0 1.90625l-1.671875 0zm0 11.6875l0 -9.859375l1.671875 0l0 9.859375l-1.671875 0zm4.129181 0l0 -9.859375l1.5 0l0 1.40625q1.09375 -1.625 3.140625 -1.625q0.890625 0 1.640625 0.3203125q0.75 0.3203125 1.1171875 0.84375q0.3671875 0.5234375 0.5234375 1.2265625q0.09375 0.46875 0.09375 1.625l0 6.0625l-1.671875 0l0 -6.0q0 -1.015625 -0.1953125 -1.5234375q-0.1953125 -0.5078125 -0.6953125 -0.8046875q-0.5 -0.296875 -1.171875 -0.296875q-1.0625 0 -1.8359375 0.671875q-0.7734375 0.671875 -0.7734375 2.578125l0 5.375l-1.671875 0zm17.125732 -3.171875l1.71875 0.21875q-0.40625 1.5 -1.5078125 2.3359375q-1.1015625 0.8359375 -2.8203125 0.8359375q-2.15625 0 -3.421875 -1.328125q-1.265625 -1.328125 -1.265625 -3.734375q0 -2.484375 1.2734375 -3.859375q1.2734375 -1.375 3.3203125 -1.375q1.984375 0 3.234375 1.34375q1.25 1.34375 1.25 3.796875q0 0.140625 -0.015625 0.4375l-7.34375 0q0.09375 1.625 0.921875 2.484375q0.828125 0.859375 2.0625 0.859375q0.90625 0 1.5546875 -0.4765625q0.6484375 -0.4765625 1.0390625 -1.5390625zm-5.484375 -2.703125l5.5 0q-0.109375 -1.234375 -0.625 -1.859375q-0.796875 -0.96875 -2.078125 -0.96875q-1.140625 0 -1.9296875 0.7734375q-0.7890625 0.7734375 -0.8671875 2.0546875zm15.547607 4.65625q-0.9375 0.796875 -1.796875 1.1171875q-0.859375 0.3203125 -1.84375 0.3203125q-1.609375 0 -2.484375 -0.7890625q-0.875 -0.7890625 -0.875 -2.0234375q0 -0.734375 0.328125 -1.328125q0.328125 -0.59375 0.859375 -0.953125q0.53125 -0.359375 1.203125 -0.546875q0.5 -0.140625 1.484375 -0.25q2.03125 -0.25 2.984375 -0.578125q0 -0.34375 0 -0.4375q0 -1.015625 -0.46875 -1.4375q-0.640625 -0.5625 -1.90625 -0.5625q-1.171875 0 -1.734375 0.40625q-0.5625 0.40625 -0.828125 1.46875l-1.640625 -0.234375q0.234375 -1.046875 0.7421875 -1.6875q0.5078125 -0.640625 1.46875 -0.9921875q0.9609375 -0.3515625 2.2421875 -0.3515625q1.265625 0 2.046875 0.296875q0.78125 0.296875 1.15625 0.75q0.375 0.453125 0.515625 1.140625q0.09375 0.421875 0.09375 1.53125l0 2.234375q0 2.328125 0.1015625 2.9453125q0.1015625 0.6171875 0.4296875 1.1796875l-1.75 0q-0.265625 -0.515625 -0.328125 -1.21875zm-0.140625 -3.71875q-0.90625 0.359375 -2.734375 0.625q-1.03125 0.140625 -1.453125 0.328125q-0.421875 0.1875 -0.65625 0.546875q-0.234375 0.359375 -0.234375 0.796875q0 0.671875 0.5078125 1.1171875q0.5078125 0.4453125 1.4765625 0.4453125q0.96875 0 1.71875 -0.4296875q0.75 -0.4296875 1.109375 -1.1484375q0.265625 -0.578125 0.265625 -1.671875l0 -0.609375zm4.0631714 4.9375l0 -9.859375l1.5 0l0 1.5q0.578125 -1.046875 1.0625 -1.3828125q0.484375 -0.3359375 1.078125 -0.3359375q0.84375 0 1.71875 0.546875l-0.578125 1.546875q-0.609375 -0.359375 -1.234375 -0.359375q-0.546875 0 -0.9765625 0.328125q-0.4296875 0.328125 -0.6171875 0.90625q-0.28125 0.890625 -0.28125 1.953125l0 5.15625l-1.671875 0zm6.2439575 -11.6875l0 -1.90625l1.671875 0l0 1.90625l-1.671875 0zm0 11.6875l0 -9.859375l1.671875 0l0 9.859375l-1.671875 0zm3.2542114 0l0 -1.359375l6.265625 -7.1875q-1.0625 0.046875 -1.875 0.046875l-4.015625 0l0 -1.359375l8.046875 0l0 1.109375l-5.34375 6.25l-1.015625 1.140625q1.109375 -0.078125 2.09375 -0.078125l4.5625 0l0 1.4375l-8.71875 0zm10.21875 -11.6875l0 -1.90625l1.671875 0l0 1.90625l-1.671875 0zm0 11.6875l0 -9.859375l1.671875 0l0 9.859375l-1.671875 0zm4.1291504 0l0 -9.859375l1.5 0l0 1.40625q1.09375 -1.625 3.140625 -1.625q0.890625 0 1.640625 0.3203125q0.75 0.3203125 1.1171875 0.84375q0.3671875 0.5234375 0.5234375 1.2265625q0.09375 0.46875 0.09375 1.625l0 6.0625l-1.671875 0l0 -6.0q0 -1.015625 -0.1953125 -1.5234375q-0.1953125 -0.5078125 -0.6953125 -0.8046875q-0.5 -0.296875 -1.171875 -0.296875q-1.0625 0 -1.8359375 0.671875q-0.7734375 0.671875 -0.7734375 2.578125l0 5.375l-1.671875 0zm10.078857 0.8125l1.609375 0.25q0.109375 0.75 0.578125 1.09375q0.609375 0.453125 1.6875 0.453125q1.171875 0 1.796875 -0.4609375q0.625 -0.4609375 0.859375 -1.2890625q0.125 -0.515625 0.109375 -2.15625q-1.09375 1.296875 -2.71875 1.296875q-2.03125 0 -3.1484375 -1.46875q-1.1171875 -1.46875 -1.1171875 -3.515625q0 -1.40625 0.515625 -2.6015625q0.515625 -1.1953125 1.484375 -1.84375q0.96875 -0.6484375 2.265625 -0.6484375q1.75 0 2.875 1.40625l0 -1.1875l1.546875 0l0 8.515625q0 2.3125 -0.46875 3.2734375q-0.46875 0.9609375 -1.484375 1.515625q-1.015625 0.5546875 -2.5 0.5546875q-1.765625 0 -2.8515625 -0.796875q-1.0859375 -0.796875 -1.0390625 -2.390625zm1.375 -5.921875q0 1.953125 0.7734375 2.84375q0.7734375 0.890625 1.9296875 0.890625q1.140625 0 1.921875 -0.890625q0.78125 -0.890625 0.78125 -2.78125q0 -1.8125 -0.8046875 -2.7265625q-0.8046875 -0.9140625 -1.9296875 -0.9140625q-1.109375 0 -1.890625 0.8984375q-0.78125 0.8984375 -0.78125 2.6796875z" fill-rule="nonzero"></path><path fill="#a4c2f4" stroke="#000000" stroke-width="1.0" stroke-linejoin="round" stroke-linecap="butt" d="m664.1496 406.9449l187.9685 0l0 106.39368l-187.9685 0z" fill-rule="nonzero"></path><path fill="#000000" d="m723.22314 466.3058l0 -13.59375l1.796875 0l0 11.984375l6.703125 0l0 1.609375l-8.5 0zm16.985107 -3.171875l1.71875 0.21875q-0.40625 1.5 -1.5078125 2.3359375q-1.1015625 0.8359375 -2.8203125 0.8359375q-2.15625 0 -3.421875 -1.328125q-1.265625 -1.328125 -1.265625 -3.734375q0 -2.484375 1.2734375 -3.859375q1.2734375 -1.375 3.3203125 -1.375q1.984375 0 3.234375 1.34375q1.25 1.34375 1.25 3.796875q0 0.140625 -0.015625 0.4375l-7.34375 0q0.09375 1.625 0.921875 2.484375q0.828125 0.859375 2.0625 0.859375q0.90625 0 1.5546875 -0.4765625q0.6484375 -0.4765625 1.0390625 -1.5390625zm-5.484375 -2.703125l5.5 0q-0.109375 -1.234375 -0.625 -1.859375q-0.796875 -0.96875 -2.078125 -0.96875q-1.140625 0 -1.9296875 0.7734375q-0.7890625 0.7734375 -0.8671875 2.0546875zm12.766296 4.375l0.234375 1.484375q-0.703125 0.140625 -1.265625 0.140625q-0.90625 0 -1.40625 -0.2890625q-0.5 -0.2890625 -0.703125 -0.75q-0.203125 -0.4609375 -0.203125 -1.9765625l0 -5.65625l-1.234375 0l0 -1.3125l1.234375 0l0 -2.4375l1.65625 -1.0l0 3.4375l1.6875 0l0 1.3125l-1.6875 0l0 5.75q0 0.71875 0.0859375 0.921875q0.0859375 0.203125 0.2890625 0.328125q0.203125 0.125 0.578125 0.125q0.265625 0 0.734375 -0.078125zm5.1833496 0l0.234375 1.484375q-0.703125 0.140625 -1.265625 0.140625q-0.90625 0 -1.40625 -0.2890625q-0.5 -0.2890625 -0.703125 -0.75q-0.203125 -0.4609375 -0.203125 -1.9765625l0 -5.65625l-1.234375 0l0 -1.3125l1.234375 0l0 -2.4375l1.65625 -1.0l0 3.4375l1.6875 0l0 1.3125l-1.6875 0l0 5.75q0 0.71875 0.0859375 0.921875q0.0859375 0.203125 0.2890625 0.328125q0.203125 0.125 0.578125 0.125q0.265625 0 0.734375 -0.078125zm8.277039 -1.671875l1.71875 0.21875q-0.40625 1.5 -1.5078125 2.3359375q-1.1015625 0.8359375 -2.8203125 0.8359375q-2.15625 0 -3.421875 -1.328125q-1.265625 -1.328125 -1.265625 -3.734375q0 -2.484375 1.2734375 -3.859375q1.2734375 -1.375 3.3203125 -1.375q1.984375 0 3.234375 1.34375q1.25 1.34375 1.25 3.796875q0 0.140625 -0.015625 0.4375l-7.34375 0q0.09375 1.625 0.921875 2.484375q0.828125 0.859375 2.0625 0.859375q0.90625 0 1.5546875 -0.4765625q0.6484375 -0.4765625 1.0390625 -1.5390625zm-5.484375 -2.703125l5.5 0q-0.109375 -1.234375 -0.625 -1.859375q-0.796875 -0.96875 -2.078125 -0.96875q-1.140625 0 -1.9296875 0.7734375q-0.7890625 0.7734375 -0.8671875 2.0546875zm9.094482 5.875l0 -9.859375l1.5 0l0 1.5q0.578125 -1.046875 1.0625 -1.3828125q0.484375 -0.3359375 1.078125 -0.3359375q0.84375 0 1.71875 0.546875l-0.578125 1.546875q-0.609375 -0.359375 -1.234375 -0.359375q-0.546875 0 -0.9765625 0.328125q-0.4296875 0.328125 -0.6171875 0.90625q-0.28125 0.890625 -0.28125 1.953125l0 5.15625l-1.671875 0zm6.2438965 -11.6875l0 -1.90625l1.671875 0l0 1.90625l-1.671875 0zm0 11.6875l0 -9.859375l1.671875 0l0 9.859375l-1.671875 0zm4.1292114 0l0 -9.859375l1.5 0l0 1.40625q1.09375 -1.625 3.140625 -1.625q0.890625 0 1.640625 0.3203125q0.75 0.3203125 1.1171875 0.84375q0.3671875 0.5234375 0.5234375 1.2265625q0.09375 0.46875 0.09375 1.625l0 6.0625l-1.671875 0l0 -6.0q0 -1.015625 -0.1953125 -1.5234375q-0.1953125 -0.5078125 -0.6953125 -0.8046875q-0.5 -0.296875 -1.171875 -0.296875q-1.0625 0 -1.8359375 0.671875q-0.7734375 0.671875 -0.7734375 2.578125l0 5.375l-1.671875 0zm10.078857 0.8125l1.609375 0.25q0.109375 0.75 0.578125 1.09375q0.609375 0.453125 1.6875 0.453125q1.171875 0 1.796875 -0.4609375q0.625 -0.4609375 0.859375 -1.2890625q0.125 -0.515625 0.109375 -2.15625q-1.09375 1.296875 -2.71875 1.296875q-2.03125 0 -3.1484375 -1.46875q-1.1171875 -1.46875 -1.1171875 -3.515625q0 -1.40625 0.515625 -2.6015625q0.515625 -1.1953125 1.484375 -1.84375q0.96875 -0.6484375 2.265625 -0.6484375q1.75 0 2.875 1.40625l0 -1.1875l1.546875 0l0 8.515625q0 2.3125 -0.46875 3.2734375q-0.46875 0.9609375 -1.484375 1.515625q-1.015625 0.5546875 -2.5 0.5546875q-1.765625 0 -2.8515625 -0.796875q-1.0859375 -0.796875 -1.0390625 -2.390625zm1.375 -5.921875q0 1.953125 0.7734375 2.84375q0.7734375 0.890625 1.9296875 0.890625q1.140625 0 1.921875 -0.890625q0.78125 -0.890625 0.78125 -2.78125q0 -1.8125 -0.8046875 -2.7265625q-0.8046875 -0.9140625 -1.9296875 -0.9140625q-1.109375 0 -1.890625 0.8984375q-0.78125 0.8984375 -0.78125 2.6796875z" fill-rule="nonzero"></path><path stroke="#000000" stroke-width="2.0" stroke-linejoin="round" stroke-linecap="butt" d="m334.2756 447.73227l0 24.388458" fill-rule="evenodd"></path><path fill="#000000" stroke="#000000" stroke-width="2.0" stroke-linecap="butt" d="m330.97214 472.12073l3.3034668 9.076202l3.3034363 -9.076202z" fill-rule="evenodd"></path><path stroke="#000000" stroke-width="2.0" stroke-linejoin="round" stroke-linecap="butt" d="m407.86615 516.9239l46.656372 -29.911865" fill-rule="evenodd"></path><path fill="#000000" stroke="#000000" stroke-width="2.0" stroke-linecap="butt" d="m456.30545 489.79303l5.8578186 -7.6795654l-9.423706 2.1175537z" fill-rule="evenodd"></path><path stroke="#000000" stroke-width="2.0" stroke-linejoin="round" stroke-linecap="butt" d="m611.8058 480.53543l41.162476 -16.037323" fill-rule="evenodd"></path><path fill="#000000" stroke="#000000" stroke-width="2.0" stroke-linecap="butt" d="m654.16754 467.5762l7.2577515 -6.373047l-9.65625 0.21685791z" fill-rule="evenodd"></path><path stroke="#000000" stroke-width="2.0" stroke-linejoin="round" stroke-linecap="butt" d="m758.13385 513.33856l0 26.165405" fill-rule="evenodd"></path><path fill="#000000" stroke="#000000" stroke-width="2.0" stroke-linecap="butt" d="m754.8304 539.50397l3.3034668 9.076172l3.3034668 -9.076172z" fill-rule="evenodd"></path></svg>

